0
SECTION
2
HEADER
9
$ACADVER
1
AC1006
9
$INSBASE
10
0.0
20
0.0
30
0.0
9
$EXTMIN
10
0.0
20
0.0
9
$EXTMAX
10
0.0
20
0.0
0
ENDSEC
0
SECTION
2
TABLES
0
TABLE
2
LTYPE
70
1
0
LTYPE
2
CONTINUOUS
70
64
3
Solid line
72
65
73
0
40
0.0
0
ENDTAB
0
TABLE
2
LAYER
70
1
0
LAYER
2
PYDXF
70
64
62
7
6
continuous
0
ENDTAB
0
TABLE
2
STYLE
70
1
0
STYLE
2
STANDARD
70
0
40
0
41
40
50
50
71
0
42
1
3
ARIAL.TTF
4

0
ENDTAB
0
TABLE
2
VIEW
70
0
0
ENDTAB
0
ENDSEC
0
SECTION
2
BLOCKS
0
ENDSEC
0
SECTION
2
ENTITIES
0
LINE
8
drawinglayer
10
5270.749999999997
20
-1.2909614233211818e-12
11
4120.372351739488
21
-71.92136692804556
0
LINE
8
drawinglayer
10
4120.372351739488
20
-71.92136692804556
11
3597.313241569663
21
-188.5271983761431
0
LINE
8
drawinglayer
10
3597.313241569663
20
-188.5271983761431
11
3395.209245059312
21
-237.4161583881316
0
LINE
8
drawinglayer
10
3395.209245059312
20
-237.4161583881316
11
2935.536726601852
21
-256.82618494166223
0
LINE
8
drawinglayer
10
2935.536726601852
20
-256.82618494166223
11
3586.245954697994
21
-376.92963854316145
0
LINE
8
drawinglayer
10
3586.245954697994
20
-376.92963854316145
11
1892.04110156627
21
-232.3134358660636
0
LINE
8
drawinglayer
10
1892.04110156627
20
-232.3134358660636
11
1882.2520316605396
21
-264.53327164984523
0
LINE
8
drawinglayer
10
1882.2520316605396
20
-264.53327164984523
11
1890.1885618139445
21
-299.3764574707422
0
LINE
8
drawinglayer
10
1890.1885618139445
20
-299.3764574707422
11
1885.4144431418717
21
-332.4494361433381
0
LINE
8
drawinglayer
10
1885.4144431418717
20
-332.4494361433381
11
1901.902667929849
21
-369.69242854205527
0
LINE
8
drawinglayer
10
1901.902667929849
20
-369.69242854205527
11
1906.898747630554
21
-405.3238412492229
0
LINE
8
drawinglayer
10
1906.898747630554
20
-405.3238412492229
11
1900.0216263312086
21
-438.6545559705374
0
LINE
8
drawinglayer
10
1900.0216263312086
20
-438.6545559705374
11
1895.472701280158
21
-472.5944230539509
0
LINE
8
drawinglayer
10
1895.472701280158
20
-472.5944230539509
11
1845.642772581837
21
-494.53849042964134
0
LINE
8
drawinglayer
10
1845.642772581837
20
-494.53849042964134
11
1850.1884492572794
21
-530.5330006087688
0
LINE
8
drawinglayer
10
1850.1884492572794
20
-530.5330006087688
11
1905.6763024453392
21
-582.6237145862347
0
LINE
8
drawinglayer
10
1905.6763024453392
20
-582.6237145862347
11
1885.9450718132891
21
-612.7806998455211
0
LINE
8
drawinglayer
10
1885.9450718132891
20
-612.7806998455211
11
1901.6742351741257
21
-654.7989506519563
0
LINE
8
drawinglayer
10
1901.6742351741257
20
-654.7989506519563
11
1898.6489402979266
21
-691.0516995895149
0
LINE
8
drawinglayer
10
1898.6489402979266
20
-691.0516995895149
11
1887.4662272707171
21
-724.5304019932119
0
LINE
8
drawinglayer
10
1887.4662272707171
20
-724.5304019932119
11
1888.9053077161873
21
-763.1672824365673
0
LINE
8
drawinglayer
10
1888.9053077161873
20
-763.1672824365673
11
1900.8425223792892
21
-806.8597803303505
0
LINE
8
drawinglayer
10
1900.8425223792892
20
-806.8597803303505
11
2187.027825596386
21
-973.7275235234652
0
LINE
8
drawinglayer
10
2187.027825596386
20
-973.7275235234652
11
2202.1013455523002
21
-1026.8567214644638
0
LINE
8
drawinglayer
10
2202.1013455523002
20
-1026.8567214644638
11
2206.3146851528795
21
-1076.0915725804884
0
LINE
8
drawinglayer
10
2206.3146851528795
20
-1076.0915725804884
11
2188.7575266687245
21
-1115.2276626101968
0
LINE
8
drawinglayer
10
2188.7575266687245
20
-1115.2276626101968
11
2206.265297656244
21
-1173.092067511245
0
LINE
8
drawinglayer
10
2206.265297656244
20
-1173.092067511245
11
2206.0095563323403
21
-1222.8110646663251
0
LINE
8
drawinglayer
10
2206.0095563323403
20
-1222.8110646663251
11
2217.4580463900543
21
-1280.2500000000011
0
LINE
8
drawinglayer
10
2217.4580463900543
20
-1280.2500000000011
11
2196.9197916995136
21
-1320.0425859944698
0
LINE
8
drawinglayer
10
2196.9197916995136
20
-1320.0425859944698
11
2213.193518944232
21
-1382.9567998326063
0
LINE
8
drawinglayer
10
2213.193518944232
20
-1382.9567998326063
11
2198.994229152902
21
-1428.0435498094007
0
LINE
8
drawinglayer
10
2198.994229152902
20
-1428.0435498094007
11
2222.4424726269285
21
-1499.0563759792067
0
LINE
8
drawinglayer
10
2222.4424726269285
20
-1499.0563759792067
11
2195.941842727715
21
-1537.6150317480688
0
LINE
8
drawinglayer
10
2195.941842727715
20
-1537.6150317480688
11
2158.8618494895477
21
-1568.5049457424657
0
LINE
8
drawinglayer
10
2158.8618494895477
20
-1568.5049457424657
11
2063.6741579622053
21
-1555.0900198248933
0
LINE
8
drawinglayer
10
2063.6741579622053
20
-1555.0900198248933
11
1974.1639404732414
21
-1542.385911059606
0
LINE
8
drawinglayer
10
1974.1639404732414
20
-1542.385911059606
11
1929.4591358072955
21
-1562.4452008789835
0
LINE
8
drawinglayer
10
1929.4591358072955
20
-1562.4452008789835
11
1907.2591522554753
21
-1600.3804512170623
0
LINE
8
drawinglayer
10
1907.2591522554753
20
-1600.3804512170623
11
1839.2272470028947
21
-1598.8158536498663
0
LINE
8
drawinglayer
10
1839.2272470028947
20
-1598.8158536498663
11
1868.0803050437992
21
-1682.0270617345818
0
LINE
8
drawinglayer
10
1868.0803050437992
20
-1682.0270617345818
11
1877.2021136310043
21
-1750.5192906904188
0
LINE
8
drawinglayer
10
1877.2021136310043
20
-1750.5192906904188
11
1850.5016363711786
21
-1787.0086580057707
0
LINE
8
drawinglayer
10
1850.5016363711786
20
-1787.0086580057707
11
1880.3737078703261
21
-1880.3737078703268
0
LINE
8
drawinglayer
10
1880.3737078703261
20
-1880.3737078703268
11
1827.298843492392
21
-1892.2233447908216
0
LINE
8
drawinglayer
10
1827.298843492392
20
-1892.2233447908216
11
1760.067267731294
21
-1887.4410654536746
0
LINE
8
drawinglayer
10
1760.067267731294
20
-1887.4410654536746
11
1727.3606603153926
21
-1918.428366969892
0
LINE
8
drawinglayer
10
1727.3606603153926
20
-1918.428366969892
11
1656.713062958278
21
-1905.8303674575557
0
LINE
8
drawinglayer
10
1656.713062958278
20
-1905.8303674575557
11
1590.577940169341
21
-1895.5769744979111
0
LINE
8
drawinglayer
10
1590.577940169341
20
-1895.5769744979111
11
1546.7121911027361
21
-1910.030486770871
0
LINE
8
drawinglayer
10
1546.7121911027361
20
-1910.030486770871
11
1007.5300043704397
21
-1289.5795982774018
0
LINE
8
drawinglayer
10
1007.5300043704397
20
-1289.5795982774018
11
968.470826007433
21
-1285.2041945436063
0
LINE
8
drawinglayer
10
968.470826007433
20
-1285.2041945436063
11
937.9583163457133
21
-1290.988868773822
0
LINE
8
drawinglayer
10
937.9583163457133
20
-1290.988868773822
11
910.9827750345486
21
-1301.0182343419908
0
LINE
8
drawinglayer
10
910.9827750345486
20
-1301.0182343419908
11
876.1154815127926
21
-1298.8946168006112
0
LINE
8
drawinglayer
10
876.1154815127926
20
-1298.8946168006112
11
838.3356346468795
21
-1290.9236717099939
0
LINE
8
drawinglayer
10
838.3356346468795
20
-1290.9236717099939
11
804.8148825541798
21
-1287.9730460375727
0
LINE
8
drawinglayer
10
804.8148825541798
20
-1287.9730460375727
11
782.4715953070996
21
-1302.251421591684
0
LINE
8
drawinglayer
10
782.4715953070996
20
-1302.251421591684
11
751.7499999999999
21
-1302.069194589903
0
LINE
8
drawinglayer
10
751.7499999999999
20
-1302.069194589903
11
720.4270956860574
21
-1299.6848848091422
0
LINE
8
drawinglayer
10
720.4270956860574
20
-1299.6848848091422
11
691.179508311527
21
-1299.919593586555
0
LINE
8
drawinglayer
10
691.179508311527
20
-1299.919593586555
11
661.3506604955844
21
-1297.9737541114048
0
LINE
8
drawinglayer
10
661.3506604955844
20
-1297.9737541114048
11
635.3093844840703
21
-1302.5772715990674
0
LINE
8
drawinglayer
10
635.3093844840703
20
-1302.5772715990674
11
607.4080966868192
21
-1302.5908669184255
0
LINE
8
drawinglayer
10
607.4080966868192
20
-1302.5908669184255
11
579.0912955791696
21
-1300.6603453186526
0
LINE
8
drawinglayer
10
579.0912955791696
20
-1300.6603453186526
11
556.7918580972149
21
-1311.7194161697282
0
LINE
8
drawinglayer
10
556.7918580972149
20
-1311.7194161697282
11
530.0683296835152
21
-1311.9651542120039
0
LINE
8
drawinglayer
10
530.0683296835152
20
-1311.9651542120039
11
502.5214572498973
21
-1309.1131530557006
0
LINE
8
drawinglayer
10
502.5214572498973
20
-1309.1131530557006
11
475.3224941868483
21
-1305.9378197372157
0
LINE
8
drawinglayer
10
475.3224941868483
20
-1305.9378197372157
11
449.8537974211757
21
-1306.4702918343562
0
LINE
8
drawinglayer
10
449.8537974211757
20
-1306.4702918343562
11
424.97562151414627
21
-1307.9404740349103
0
LINE
8
drawinglayer
10
424.97562151414627
20
-1307.9404740349103
11
400.5492354701494
21
-1310.137515669359
0
LINE
8
drawinglayer
10
400.5492354701494
20
-1310.137515669359
11
374.8668039111178
21
-1307.3159064761135
0
LINE
8
drawinglayer
10
374.8668039111178
20
-1307.3159064761135
11
352.64094895218403
21
-1316.073938318856
0
LINE
8
drawinglayer
10
352.64094895218403
20
-1316.073938318856
11
326.95744190295073
21
-1311.35467406201
0
LINE
8
drawinglayer
10
326.95744190295073
20
-1311.35467406201
11
303.34649678270193
21
-1313.9380323628902
0
LINE
8
drawinglayer
10
303.34649678270193
20
-1313.9380323628902
11
279.48529038177304
21
-1314.8749122864178
0
LINE
8
drawinglayer
10
279.48529038177304
20
-1314.8749122864178
11
255.25473356497207
21
-1313.1717646571126
0
LINE
8
drawinglayer
10
255.25473356497207
20
-1313.1717646571126
11
230.95207629701673
21
-1309.7943115062362
0
LINE
8
drawinglayer
10
230.95207629701673
20
-1309.7943115062362
11
207.86229542220647
21
-1312.390882565789
0
LINE
8
drawinglayer
10
207.86229542220647
20
-1312.390882565789
11
184.36956549684677
21
-1311.8576240653958
0
LINE
8
drawinglayer
10
184.36956549684677
20
-1311.8576240653958
11
161.32454333256428
21
-1313.8829682352002
0
LINE
8
drawinglayer
10
161.32454333256428
20
-1313.8829682352002
11
138.44794959800757
21
-1317.2442504152782
0
LINE
8
drawinglayer
10
138.44794959800757
20
-1317.2442504152782
11
115.37241446221215
21
-1318.7127315989485
0
LINE
8
drawinglayer
10
115.37241446221215
20
-1318.7127315989485
11
92.06110622380923
21
-1316.5351553304026
0
LINE
8
drawinglayer
10
92.06110622380923
20
-1316.5351553304026
11
69.13579819692781
21
-1319.1896154107926
0
LINE
8
drawinglayer
10
69.13579819692781
20
-1319.1896154107926
11
46.12840976652991
21
-1320.9448256124904
0
LINE
8
drawinglayer
10
46.12840976652991
20
-1320.9448256124904
11
23.00227168433917
21
-1317.799262216124
0
LINE
8
drawinglayer
10
23.00227168433917
20
-1317.799262216124
11
-2.4238821772123993e-13
21
-1319.5000000000002
0
LINE
8
drawinglayer
10
-2.4238821772123993e-13
20
-1319.5000000000002
11
-23.137527834228592
21
-1325.5480818535855
0
LINE
8
drawinglayer
10
-23.137527834228592
20
-1325.5480818535855
11
-46.128409766530396
21
-1320.9448256124904
0
LINE
8
drawinglayer
10
-46.128409766530396
20
-1320.9448256124904
11
-69.26663808753561
21
-1321.6861892476784
0
LINE
8
drawinglayer
10
-69.26663808753561
20
-1321.6861892476784
11
-92.13086269755387
21
-1317.532719380663
0
LINE
8
drawinglayer
10
-92.13086269755387
20
-1317.532719380663
11
-115.74282636889014
21
-1322.9465590658378
0
LINE
8
drawinglayer
10
-115.74282636889014
20
-1322.9465590658378
11
-139.28417730414924
21
-1325.200425578224
0
LINE
8
drawinglayer
10
-139.28417730414924
20
-1325.200425578224
11
-162.11669406469815
21
-1320.3345182208684
0
LINE
8
drawinglayer
10
-162.11669406469815
20
-1320.3345182208684
11
-186.3179889102882
21
-1325.7213770277776
0
LINE
8
drawinglayer
10
-186.3179889102882
20
-1325.7213770277776
11
-210.63900717667104
21
-1329.9223506113526
0
LINE
8
drawinglayer
10
-210.63900717667104
20
-1329.9223506113526
11
-234.51186393918942
21
-1329.982870442987
0
LINE
8
drawinglayer
10
-234.51186393918942
20
-1329.982870442987
11
-257.1628235187381
21
-1322.9880364915896
0
LINE
8
drawinglayer
10
-257.1628235187381
20
-1322.9880364915896
11
-282.3960540532221
21
-1328.5689786966907
0
LINE
8
drawinglayer
10
-282.3960540532221
20
-1328.5689786966907
11
-305.98967167124283
21
-1325.3868806241164
0
LINE
8
drawinglayer
10
-305.98967167124283
20
-1325.3868806241164
11
-333.42885261024225
21
-1337.3100847398925
0
LINE
8
drawinglayer
10
-333.42885261024225
20
-1337.3100847398925
11
-356.00559653851707
21
-1328.6309740606132
0
LINE
8
drawinglayer
10
-356.00559653851707
20
-1328.6309740606132
11
-380.31064168850435
21
-1326.300824970896
0
LINE
8
drawinglayer
10
-380.31064168850435
20
-1326.300824970896
11
-408.6625502762056
21
-1336.674972647332
0
LINE
8
drawinglayer
10
-408.6625502762056
20
-1336.674972647332
11
-433.93711435102017
21
-1335.5211130074695
0
LINE
8
drawinglayer
10
-433.93711435102017
20
-1335.5211130074695
11
-461.08589874994834
21
-1339.0906826925332
0
LINE
8
drawinglayer
10
-461.08589874994834
20
-1339.0906826925332
11
-485.5830984866192
21
-1334.1285983607934
0
LINE
8
drawinglayer
10
-485.5830984866192
20
-1334.1285983607934
11
-511.5702479759165
21
-1332.6860588247546
0
LINE
8
drawinglayer
10
-511.5702479759165
20
-1332.6860588247546
11
-541.9620890244713
21
-1341.4032415945003
0
LINE
8
drawinglayer
10
-541.9620890244713
20
-1341.4032415945003
11
-569.685985337361
21
-1342.0960763336573
0
LINE
8
drawinglayer
10
-569.685985337361
20
-1342.0960763336573
11
-592.3102364791341
21
-1330.350572692038
0
LINE
8
drawinglayer
10
-592.3102364791341
20
-1330.350572692038
11
-624.9467545490592
21
-1340.2026400804468
0
LINE
8
drawinglayer
10
-624.9467545490592
20
-1340.2026400804468
11
-654.2689365826985
21
-1341.4501141015064
0
LINE
8
drawinglayer
10
-654.2689365826985
20
-1341.4501141015064
11
-684.9581664820412
21
-1344.3060933691995
0
LINE
8
drawinglayer
10
-684.9581664820412
20
-1344.3060933691995
11
-711.9536249648036
21
-1338.9900245705633
0
LINE
8
drawinglayer
10
-711.9536249648036
20
-1338.9900245705633
11
-743.5767550528205
21
-1341.4479758250484
0
LINE
8
drawinglayer
10
-743.5767550528205
20
-1341.4479758250484
11
-775.8750000000003
21
-1343.8549203225016
0
LINE
8
drawinglayer
10
-775.8750000000003
20
-1343.8549203225016
11
-810.1548918335159
21
-1348.3241640044225
0
LINE
8
drawinglayer
10
-810.1548918335159
20
-1348.3241640044225
11
-847.4733833249534
21
-1356.2409177781647
0
LINE
8
drawinglayer
10
-847.4733833249534
20
-1356.2409177781647
11
-875.9157280629167
21
-1348.7919408982277
0
LINE
8
drawinglayer
10
-875.9157280629167
20
-1348.7919408982277
11
-907.4302841071551
21
-1345.3207208636934
0
LINE
8
drawinglayer
10
-907.4302841071551
20
-1345.3207208636934
11
-945.9709376519628
21
-1350.9865090436188
0
LINE
8
drawinglayer
10
-945.9709376519628
20
-1350.9865090436188
11
-990.1242574866714
21
-1362.7891270245989
0
LINE
8
drawinglayer
10
-990.1242574866714
20
-1362.7891270245989
11
-1009.8456088491373
21
-1340.1103858593576
0
LINE
8
drawinglayer
10
-1009.8456088491373
20
-1340.1103858593576
11
-1055.7055148146721
21
-1351.2414397471266
0
LINE
8
drawinglayer
10
-1055.7055148146721
20
-1351.2414397471266
11
-1097.2201017953914
21
-1354.9539838002295
0
LINE
8
drawinglayer
10
-1097.2201017953914
20
-1354.9539838002295
11
-1131.1454961458878
21
-1348.0467087786215
0
LINE
8
drawinglayer
10
-1131.1454961458878
20
-1348.0467087786215
11
-1190.2550933460288
21
-1369.231855919164
0
LINE
8
drawinglayer
10
-1190.2550933460288
20
-1369.231855919164
11
-1194.398132350562
21
-1326.513513477148
0
LINE
8
drawinglayer
10
-1194.398132350562
20
-1326.513513477148
11
-1220.0950661518107
21
-1308.3917721966966
0
LINE
8
drawinglayer
10
-1220.0950661518107
20
-1308.3917721966966
11
-1262.0205945313835
21
-1306.8605822652437
0
LINE
8
drawinglayer
10
-1262.0205945313835
20
-1306.8605822652437
11
-1259.710730683835
21
-1259.7107306838345
0
LINE
8
drawinglayer
10
-1259.710730683835
20
-1259.7107306838345
11
-1304.1630580139745
21
-1259.4156256421622
0
LINE
8
drawinglayer
10
-1304.1630580139745
20
-1259.4156256421622
11
-1295.5930824183606
21
-1208.160094850716
0
LINE
8
drawinglayer
10
-1295.5930824183606
20
-1208.160094850716
11
-1346.5784237650385
21
-1212.4646587222512
0
LINE
8
drawinglayer
10
-1346.5784237650385
20
-1212.4646587222512
11
-1988.0768410045278
21
-1668.194544038991
0
LINE
8
drawinglayer
10
-1988.0768410045278
20
-1668.194544038991
11
-2008.4424082551325
21
-1569.16718523627
0
LINE
8
drawinglayer
10
-2008.4424082551325
20
-1569.16718523627
11
-1994.5921863431147
21
-1503.0330203222402
0
LINE
8
drawinglayer
10
-1994.5921863431147
20
-1503.0330203222402
11
-1983.102907461591
21
-1440.808599681925
0
LINE
8
drawinglayer
10
-1983.102907461591
20
-1440.808599681925
11
-2026.5823461107993
21
-1366.94705253424
0
LINE
8
drawinglayer
10
-2026.5823461107993
20
-1366.94705253424
11
-2120.3688634080186
21
-1376.9836402767423
0
LINE
8
drawinglayer
10
-2120.3688634080186
20
-1376.9836402767423
11
-2130.720841593021
21
-1331.4221513859272
0
LINE
8
drawinglayer
10
-2130.720841593021
20
-1331.4221513859272
11
-2153.204259363706
21
-1293.775644174056
0
LINE
8
drawinglayer
10
-2153.204259363706
20
-1293.775644174056
11
-2278.5128373568577
21
-1315.5000000000002
0
LINE
8
drawinglayer
10
-2278.5128373568577
20
-1315.5000000000002
11
-2415.6996311190105
21
-1339.0441711203837
0
LINE
8
drawinglayer
10
-2415.6996311190105
20
-1339.0441711203837
11
-2542.0061198408507
21
-1351.6086292605785
0
LINE
8
drawinglayer
10
-2542.0061198408507
20
-1351.6086292605785
11
-2791.077937020063
21
-1422.1252404341287
0
LINE
8
drawinglayer
10
-2791.077937020063
20
-1422.1252404341287
11
-2825.583783053006
21
-1378.1292927181607
0
LINE
8
drawinglayer
10
-2825.583783053006
20
-1378.1292927181607
11
-3011.434199376029
21
-1404.2548291989085
0
LINE
8
drawinglayer
10
-3011.434199376029
20
-1404.2548291989085
11
-3191.242669910018
21
-1420.8327784245384
0
LINE
8
drawinglayer
10
-3191.242669910018
20
-1420.8327784245384
11
-3378.943190810545
21
-1434.2762899020006
0
LINE
8
drawinglayer
10
-3378.943190810545
20
-1434.2762899020006
11
-3650.066072497436
21
-1401.1290907347388
0
LINE
8
drawinglayer
10
-3650.066072497436
20
-1401.1290907347388
11
-3974.4299396140004
21
-1446.5741961959159
0
LINE
8
drawinglayer
10
-3974.4299396140004
20
-1446.5741961959159
11
-4044.2193274821775
21
-1392.5363886518737
0
LINE
8
drawinglayer
10
-4044.2193274821775
20
-1392.5363886518737
11
-4133.053855689664
21
-1342.910603304929
0
LINE
8
drawinglayer
10
-4133.053855689664
20
-1342.910603304929
11
-4817.38520816379
21
-1472.8224625407863
0
LINE
8
drawinglayer
10
-4817.38520816379
20
-1472.8224625407863
11
-4915.651997604577
21
-1409.5405283091761
0
LINE
8
drawinglayer
10
-4915.651997604577
20
-1409.5405283091761
11
-5304.62315652299
21
-1421.3694909417657
0
LINE
8
drawinglayer
10
-5304.62315652299
20
-1421.3694909417657
11
-5486.779758159194
21
-1368.0078391422205
0
LINE
8
drawinglayer
10
-5486.779758159194
20
-1368.0078391422205
11
-5567.0633651504395
21
-1285.257848993672
0
LINE
8
drawinglayer
10
-5567.0633651504395
20
-1285.257848993672
11
-5428.71918407262
21
-1153.9098840385625
0
LINE
8
drawinglayer
10
-5428.71918407262
20
-1153.9098840385625
11
-5039.673959820307
21
-979.6133822631806
0
LINE
8
drawinglayer
10
-5039.673959820307
20
-979.6133822631806
11
-4840.330106055004
21
-853.4807932329636
0
LINE
8
drawinglayer
10
-4840.330106055004
20
-853.4807932329636
11
-4872.760428326113
21
-771.7694332759783
0
LINE
8
drawinglayer
10
-4872.760428326113
20
-771.7694332759783
11
-5531.142297956038
21
-777.3513554124457
0
LINE
8
drawinglayer
10
-5531.142297956038
20
-777.3513554124457
11
-5496.968724327553
21
-674.9428911135597
0
LINE
8
drawinglayer
10
-5496.968724327553
20
-674.9428911135597
11
-5502.192386124972
21
-578.303723028293
0
LINE
8
drawinglayer
10
-5502.192386124972
20
-578.303723028293
11
-5488.285640461947
21
-480.1627757325344
0
LINE
8
drawinglayer
10
-5488.285640461947
20
-480.1627757325344
11
-5435.726509865782
21
-380.1030254317361
0
LINE
8
drawinglayer
10
-5435.726509865782
20
-380.1030254317361
11
-5484.223747488429
21
-287.41598769718524
0
LINE
8
drawinglayer
10
-5484.223747488429
20
-287.41598769718524
11
-5833.943952723974
21
-203.72581200084906
0
LINE
8
drawinglayer
10
-5833.943952723974
20
-203.72581200084906
11
-5804.36583230664
21
-101.31558247003825
0
LINE
8
drawinglayer
10
-5804.36583230664
20
-101.31558247003825
11
-5824.5
21
7.132955281633759e-13
0
LINE
8
drawinglayer
10
-5824.5
20
7.132955281633759e-13
11
-6087.822653883479
21
106.26333969500956
0
LINE
8
drawinglayer
10
-6087.822653883479
20
106.26333969500956
11
-7716.90972981597
21
404.42610186735175
0
LINE
8
drawinglayer
10
-7716.90972981597
20
404.42610186735175
11
-7450.556500378062
21
520.9936632764375
0
LINE
8
drawinglayer
10
-7450.556500378062
20
520.9936632764375
11
-7466.728310872156
21
653.2540808293851
0
LINE
8
drawinglayer
10
-7466.728310872156
20
653.2540808293851
11
-7422.365535607265
21
780.1220534823167
0
LINE
8
drawinglayer
10
-7422.365535607265
20
780.1220534823167
11
-5606.365943303148
21
887.9611321846108
0
LINE
8
drawinglayer
10
-5606.365943303148
20
887.9611321846108
11
-5559.978371568671
21
980.3741990630734
0
LINE
8
drawinglayer
10
-5559.978371568671
20
980.3741990630734
11
-5617.60696407512
21
1091.952178291123
0
LINE
8
drawinglayer
10
-5617.60696407512
20
1091.952178291123
11
-5603.807604603973
21
1191.126076694943
0
LINE
8
drawinglayer
10
-5603.807604603973
20
1191.126076694943
11
-5567.0633651504395
21
1285.2578489936734
0
LINE
8
drawinglayer
10
-5567.0633651504395
20
1285.2578489936734
11
-5664.101302136131
21
1412.219065563061
0
LINE
8
drawinglayer
10
-5664.101302136131
20
1412.219065563061
11
-5673.365340708845
21
1520.1736614096578
0
LINE
8
drawinglayer
10
-5673.365340708845
20
1520.1736614096578
11
-5694.033655890634
21
1632.7378771819954
0
LINE
8
drawinglayer
10
-5694.033655890634
20
1632.7378771819954
11
-5632.635012622279
21
1722.069340816921
0
LINE
8
drawinglayer
10
-5632.635012622279
20
1722.069340816921
11
-5561.065214906838
21
1806.8996203589124
0
LINE
8
drawinglayer
10
-5561.065214906838
20
1806.8996203589124
11
-5667.911101430106
21
1951.6183018934255
0
LINE
8
drawinglayer
10
-5667.911101430106
20
1951.6183018934255
11
-5588.352015813798
21
2033.9937923577534
0
LINE
8
drawinglayer
10
-5588.352015813798
20
2033.9937923577534
11
-5593.313730251357
21
2147.0719777132817
0
LINE
8
drawinglayer
10
-5593.313730251357
20
2147.0719777132817
11
-5561.248759691592
21
2246.8903473086425
0
LINE
8
drawinglayer
10
-5561.248759691592
20
2246.8903473086425
11
-5611.167460432712
21
2381.79927648849
0
LINE
8
drawinglayer
10
-5611.167460432712
20
2381.79927648849
11
-5630.86581454458
21
2507.0229837584616
0
LINE
8
drawinglayer
10
-5630.86581454458
20
2507.0229837584616
11
-5299.408207750053
21
2471.154630963306
0
LINE
8
drawinglayer
10
-5299.408207750053
20
2471.154630963306
11
-5107.397168095016
21
2491.0440416289343
0
LINE
8
drawinglayer
10
-5107.397168095016
20
2491.0440416289343
11
-4827.473348052579
21
2459.720527588866
0
LINE
8
drawinglayer
10
-4827.473348052579
20
2459.720527588866
11
-4623.555070005773
21
2458.3878385283174
0
LINE
8
drawinglayer
10
-4623.555070005773
20
2458.3878385283174
11
-4543.649378589159
21
2518.5859771797204
0
LINE
8
drawinglayer
10
-4543.649378589159
20
2518.5859771797204
11
-4360.654414405595
21
2517.6249999999995
0
LINE
8
drawinglayer
10
-4360.654414405595
20
2517.6249999999995
11
-4181.904968300429
21
2512.742007967427
0
LINE
8
drawinglayer
10
-4181.904968300429
20
2512.742007967427
11
-3986.674100031357
21
2491.1504611602954
0
LINE
8
drawinglayer
10
-3986.674100031357
20
2491.1504611602954
11
-3918.059225799035
21
2544.4174118314545
0
LINE
8
drawinglayer
10
-3918.059225799035
20
2544.4174118314545
11
-3773.157252091132
21
2545.026701921236
0
LINE
8
drawinglayer
10
-3773.157252091132
20
2545.026701921236
11
-3578.8752814986055
21
2505.9554504177195
0
LINE
8
drawinglayer
10
-3578.8752814986055
20
2505.9554504177195
11
-3434.074886873056
21
2495.001449668475
0
LINE
8
drawinglayer
10
-3434.074886873056
20
2495.001449668475
11
-3403.58488494405
21
2564.7851749182437
0
LINE
8
drawinglayer
10
-3403.58488494405
20
2564.7851749182437
11
-2020.2625695592328
21
1578.4021073661565
0
LINE
8
drawinglayer
10
-2020.2625695592328
20
1578.4021073661565
11
-1983.0822071478249
21
1605.868307861422
0
LINE
8
drawinglayer
10
-1983.0822071478249
20
1605.868307861422
11
-1955.3284410611918
21
1640.7153737248925
0
LINE
8
drawinglayer
10
-1955.3284410611918
20
1640.7153737248925
11
-1913.754818049894
21
1663.6016827626788
0
LINE
8
drawinglayer
10
-1913.754818049894
20
1663.6016827626788
11
-1939.9795669087387
21
1746.7654478997995
0
LINE
8
drawinglayer
10
-1939.9795669087387
20
1746.7654478997995
11
-1898.9598862541757
21
1770.8087419022772
0
LINE
8
drawinglayer
10
-1898.9598862541757
20
1770.8087419022772
11
-1863.62958772736
21
1799.6861732666478
0
LINE
8
drawinglayer
10
-1863.62958772736
20
1799.6861732666478
11
-1871.8884264960877
21
1871.888426496088
0
LINE
8
drawinglayer
10
-1871.8884264960877
20
1871.888426496088
11
-1825.0412037884018
21
1889.885490439722
0
LINE
8
drawinglayer
10
-1825.0412037884018
20
1889.885490439722
11
-2005.2456781737606
21
2150.362721185766
0
LINE
8
drawinglayer
10
-2005.2456781737606
20
2150.362721185766
11
-2230.8814416004334
21
2477.6448481416346
0
LINE
8
drawinglayer
10
-2230.8814416004334
20
2477.6448481416346
11
-2193.5333634297604
21
2523.371481474838
0
LINE
8
drawinglayer
10
-2193.5333634297604
20
2523.371481474838
11
-2141.768315475549
21
2552.4600844724346
0
LINE
8
drawinglayer
10
-2141.768315475549
20
2552.4600844724346
11
-2064.485542838992
21
2549.4273265595943
0
LINE
8
drawinglayer
10
-2064.485542838992
20
2549.4273265595943
11
-1693.3768878832234
21
2167.4235777952895
0
LINE
8
drawinglayer
10
-1693.3768878832234
20
2167.4235777952895
11
-1681.3207209310358
21
2231.187956194625
0
LINE
8
drawinglayer
10
-1681.3207209310358
20
2231.187956194625
11
-1595.6900136609913
21
2196.278885479389
0
LINE
8
drawinglayer
10
-1595.6900136609913
20
2196.278885479389
11
-1564.7165183656534
21
2234.646776820371
0
LINE
8
drawinglayer
10
-1564.7165183656534
20
2234.646776820371
11
-1314.634686207914
21
2187.9195350421423
0
LINE
8
drawinglayer
10
-1314.634686207914
20
2187.9195350421423
11
-1292.249999999999
21
2238.2426560808813
0
LINE
8
drawinglayer
10
-1292.249999999999
20
2238.2426560808813
11
-1241.7186398559309
21
2240.119724910778
0
LINE
8
drawinglayer
10
-1241.7186398559309
20
2240.119724910778
11
-1285.4741000125262
21
2522.884973239363
0
LINE
8
drawinglayer
10
-1285.4741000125262
20
2522.884973239363
11
-1267.5501709406176
21
2598.862984874041
0
LINE
8
drawinglayer
10
-1267.5501709406176
20
2598.862984874041
11
-1141.0996521491572
21
2562.9517814163173
0
LINE
8
drawinglayer
10
-1141.0996521491572
20
2562.9517814163173
11
-1085.3533921610795
21
2556.9323566775156
0
LINE
8
drawinglayer
10
-1085.3533921610795
20
2556.9323566775156
11
-1035.6935791466428
21
2563.4315619135255
0
LINE
8
drawinglayer
10
-1035.6935791466428
20
2563.4315619135255
11
-939.9568588947687
21
2582.510245074872
0
LINE
8
drawinglayer
10
-939.9568588947687
20
2582.510245074872
11
-902.7191002710806
21
2621.6866304930063
0
LINE
8
drawinglayer
10
-902.7191002710806
20
2621.6866304930063
11
-848.4061580564179
21
2611.125665488344
0
LINE
8
drawinglayer
10
-848.4061580564179
20
2611.125665488344
11
-801.6832143497437
21
2622.1876408506428
0
LINE
8
drawinglayer
10
-801.6832143497437
20
2622.1876408506428
11
-754.6261708879889
21
2631.6942080551316
0
LINE
8
drawinglayer
10
-754.6261708879889
20
2631.6942080551316
11
-696.09382180323
21
2597.85750980445
0
LINE
8
drawinglayer
10
-696.09382180323
20
2597.85750980445
11
-648.6530825766084
21
2601.6054160775147
0
LINE
8
drawinglayer
10
-648.6530825766084
20
2601.6054160775147
11
-603.1500144594874
21
2612.529736205411
0
LINE
8
drawinglayer
10
-603.1500144594874
20
2612.529736205411
11
-589.6895330818693
21
2774.2711325812566
0
LINE
8
drawinglayer
10
-589.6895330818693
20
2774.2711325812566
11
-748.2574753691206
21
3849.450999890015
0
LINE
8
drawinglayer
10
-748.2574753691206
20
3849.450999890015
11
-681.4388612094513
21
3864.631824758157
0
LINE
8
drawinglayer
10
-681.4388612094513
20
3864.631824758157
11
-628.7883322292085
21
3970.013285022155
0
LINE
8
drawinglayer
10
-628.7883322292085
20
3970.013285022155
11
-550.2208546456175
21
3915.024809769798
0
LINE
8
drawinglayer
10
-550.2208546456175
20
3915.024809769798
11
-486.35008219409184
21
3961.0035546626063
0
LINE
8
drawinglayer
10
-486.35008219409184
20
3961.0035546626063
11
-414.0372430031748
21
3939.3012275537303
0
LINE
8
drawinglayer
10
-414.0372430031748
20
3939.3012275537303
11
-343.6768825897034
21
3928.244743250276
0
LINE
8
drawinglayer
10
-343.6768825897034
20
3928.244743250276
11
-275.57294952616706
21
3940.876780551435
0
LINE
8
drawinglayer
10
-275.57294952616706
20
3940.876780551435
11
-207.5382344813938
21
3960.0654200692625
0
LINE
8
drawinglayer
10
-207.5382344813938
20
3960.0654200692625
11
-138.5422770347523
21
3967.3317355590552
0
LINE
8
drawinglayer
10
-138.5422770347523
20
3967.3317355590552
11
-69.49111933165348
21
3981.1435601889607
0
LINE
8
drawinglayer
10
-69.49111933165348
20
3981.1435601889607
11
2.4235760155126114e-13
21
3957.999999999999
0
LINE
8
drawinglayer
10
2.4235760155126114e-13
20
3957.999999999999
11
68.8715589031304
21
3945.6489670109095
0
LINE
8
drawinglayer
10
68.8715589031304
20
3945.6489670109095
11
138.18455719355302
21
3957.0879795821097
0
LINE
8
drawinglayer
10
138.18455719355302
20
3957.0879795821097
11
208.23168590161328
21
3973.2972614047603
0
LINE
8
drawinglayer
10
208.23168590161328
20
3973.2972614047603
11
277.6482046200544
21
3970.554311046664
0
LINE
8
drawinglayer
10
277.6482046200544
20
3970.554311046664
11
348.3397148267035
21
3981.541159598184
0
LINE
8
drawinglayer
10
348.3397148267035
20
3981.541159598184
11
418.2445136496983
21
3979.330733842303
0
LINE
8
drawinglayer
10
418.2445136496983
20
3979.330733842303
11
484.1564340127997
21
3943.137723933062
0
LINE
8
drawinglayer
10
484.1564340127997
20
3943.137723933062
11
546.3588010939769
21
3887.5448708622193
0
LINE
8
drawinglayer
10
546.3588010939769
20
3887.5448708622193
11
614.1226011316865
21
3877.4175030913616
0
LINE
8
drawinglayer
10
614.1226011316865
20
3877.4175030913616
11
682.9582827640371
21
3873.248892597013
0
LINE
8
drawinglayer
10
682.9582827640371
20
3873.248892597013
11
755.7944306864944
21
3888.2252736361966
0
LINE
8
drawinglayer
10
755.7944306864944
20
3888.2252736361966
11
841.1067452032448
21
3957.0961187686103
0
LINE
8
drawinglayer
10
841.1067452032448
20
3957.0961187686103
11
630.2566165079239
21
2729.941329012032
0
LINE
8
drawinglayer
10
630.2566165079239
20
2729.941329012032
11
685.0018473904588
21
2747.392348950483
0
LINE
8
drawinglayer
10
685.0018473904588
20
2747.392348950483
11
734.0755166720245
21
2739.60712481237
0
LINE
8
drawinglayer
10
734.0755166720245
20
2739.60712481237
11
788.4606563145263
21
2749.689081231562
0
LINE
8
drawinglayer
10
788.4606563145263
20
2749.689081231562
11
836.1099825808462
21
2734.79252586529
0
LINE
8
drawinglayer
10
836.1099825808462
20
2734.79252586529
11
888.0375875850056
21
2733.0986637031983
0
LINE
8
drawinglayer
10
888.0375875850056
20
2733.0986637031983
11
949.4381304356831
21
2757.3685460915067
0
LINE
8
drawinglayer
10
949.4381304356831
20
2757.3685460915067
11
1102.5874370461254
21
3029.3340862585733
0
LINE
8
drawinglayer
10
1102.5874370461254
20
3029.3340862585733
11
1152.8696936872304
21
3003.3282320414974
0
LINE
8
drawinglayer
10
1152.8696936872304
20
3003.3282320414974
11
1224.4016505799098
21
3030.500428651546
0
LINE
8
drawinglayer
10
1224.4016505799098
20
3030.500428651546
11
1297.0319810201438
21
3055.615861035375
0
LINE
8
drawinglayer
10
1297.0319810201438
20
3055.615861035375
11
1357.788598747791
21
3049.6431239754133
0
LINE
8
drawinglayer
10
1357.788598747791
20
3049.6431239754133
11
1412.1789216065465
21
3028.4274703829647
0
LINE
8
drawinglayer
10
1412.1789216065465
20
3028.4274703829647
11
1487.2837082686428
21
3049.3835005814994
0
LINE
8
drawinglayer
10
1487.2837082686428
20
3049.3835005814994
11
1534.828381994473
21
3012.2703066498243
0
LINE
8
drawinglayer
10
1534.828381994473
20
3012.2703066498243
11
1619.6768916113242
21
3046.169195363299
0
LINE
8
drawinglayer
10
1619.6768916113242
20
3046.169195363299
11
1643.747017445207
21
2965.398117056123
0
LINE
8
drawinglayer
10
1643.747017445207
20
2965.398117056123
11
1790.8750000000007
21
3101.8864900049134
0
LINE
8
drawinglayer
10
1790.8750000000007
20
3101.8864900049134
11
2200.3714155344796
21
3662.033000424599
0
LINE
8
drawinglayer
10
2200.3714155344796
20
3662.033000424599
11
2335.486677291792
21
3737.5599717854084
0
LINE
8
drawinglayer
10
2335.486677291792
20
3737.5599717854084
11
2457.683645505311
21
3784.500937853726
0
LINE
8
drawinglayer
10
2457.683645505311
20
3784.500937853726
11
3282.37782961819
21
4053.3990484691953
0
LINE
8
drawinglayer
10
3282.37782961819
20
4053.3990484691953
11
2044.316434450987
21
1906.3559159646995
0
LINE
8
drawinglayer
10
2044.316434450987
20
1906.3559159646995
11
1800.925735806589
21
1565.5208579285975
0
LINE
8
drawinglayer
10
1800.925735806589
20
1565.5208579285975
11
1844.9445124988492
21
1494.0066083523145
0
LINE
8
drawinglayer
10
1844.9445124988492
20
1494.0066083523145
11
1838.0350827876796
21
1436.0303911970984
0
LINE
8
drawinglayer
10
1838.0350827876796
20
1436.0303911970984
11
1835.2644020886796
21
1382.9709232034074
0
LINE
8
drawinglayer
10
1835.2644020886796
20
1382.9709232034074
11
1854.7650162813493
21
1298.7204460078558
0
LINE
8
drawinglayer
10
1854.7650162813493
20
1298.7204460078558
11
1846.681192866355
21
1245.6021924810882
0
LINE
8
drawinglayer
10
1846.681192866355
20
1245.6021924810882
11
1844.8655818379473
21
1198.0697172743062
0
LINE
8
drawinglayer
10
1844.8655818379473
20
1198.0697172743062
11
1857.225330582573
21
1160.5231886707188
0
LINE
8
drawinglayer
10
1857.225330582573
20
1160.5231886707188
11
1854.6957468941955
21
1114.4136345866298
0
LINE
8
drawinglayer
10
1854.6957468941955
20
1114.4136345866298
11
1855.675933959106
21
1071.3749999999998
0
LINE
8
drawinglayer
10
1855.675933959106
20
1071.3749999999998
11
1830.141737189186
21
1014.4641303654605
0
LINE
8
drawinglayer
10
1830.141737189186
20
1014.4641303654605
11
1844.2567845840838
21
980.6087267690294
0
LINE
8
drawinglayer
10
1844.2567845840838
20
980.6087267690294
11
1894.9481253176118
21
965.5242953210812
0
LINE
8
drawinglayer
10
1894.9481253176118
20
965.5242953210812
11
2001.6143411082446
21
976.2525438992752
0
LINE
8
drawinglayer
10
2001.6143411082446
20
976.2525438992752
11
2074.538524526892
21
967.3732011244612
0
LINE
8
drawinglayer
10
2074.538524526892
20
967.3732011244612
11
1423.9889821004042
21
634.0007423944035
0
LINE
8
drawinglayer
10
1423.9889821004042
20
634.0007423944035
11
1187.6813871670115
21
504.1408385332855
0
LINE
8
drawinglayer
10
1187.6813871670115
20
504.1408385332855
11
1649.9236692015975
21
666.6124329836151
0
LINE
8
drawinglayer
10
1649.9236692015975
20
666.6124329836151
11
1351.5910624613234
21
518.8271989542083
0
LINE
8
drawinglayer
10
1351.5910624613234
20
518.8271989542083
11
2178.677341292129
21
792.9737023005629
0
LINE
8
drawinglayer
10
2178.677341292129
20
792.9737023005629
11
2159.61158437722
21
701.7003399769118
0
LINE
8
drawinglayer
10
2159.61158437722
20
701.7003399769118
11
3321.5648449743057
21
828.1591291115628
0
LINE
8
drawinglayer
10
3321.5648449743057
20
828.1591291115628
11
3346.4739875048904
21
772.5943961440042
0
LINE
8
drawinglayer
10
3346.4739875048904
20
772.5943961440042
11
3338.906835104846
21
709.7065566064214
0
LINE
8
drawinglayer
10
3338.906835104846
20
709.7065566064214
11
3348.592562179761
21
590.44721611198
0
LINE
8
drawinglayer
10
3348.592562179761
20
590.44721611198
11
3348.7573187878165
21
530.3910537189031
0
LINE
8
drawinglayer
10
3348.7573187878165
20
530.3910537189031
11
3349.086608483991
21
470.6834274469413
0
LINE
8
drawinglayer
10
3349.086608483991
20
470.6834274469413
11
5473.840817339617
21
478.89901746269453
0
LINE
8
drawinglayer
10
5473.840817339617
20
478.89901746269453
11
5446.949105431206
21
380.88778576136025
0
LINE
8
drawinglayer
10
5446.949105431206
20
380.88778576136025
11
5469.993276618181
21
286.670200320725
0
LINE
8
drawinglayer
10
5469.993276618181
20
286.670200320725
11
5259.544074894745
21
183.66732627108695
0
LINE
8
drawinglayer
10
5259.544074894745
20
183.66732627108695
11
5280.6956019684785
21
92.17488459851283
0
LINE
8
drawinglayer
10
5280.6956019684785
20
92.17488459851283
11
5270.749999999997
21
-1.2909614233211818e-12
0
ENDSEC
0
EOF
