0
SECTION
2
HEADER
9
$ACADVER
1
AC1006
9
$INSBASE
10
0.0
20
0.0
30
0.0
9
$EXTMIN
10
0.0
20
0.0
9
$EXTMAX
10
0.0
20
0.0
0
ENDSEC
0
SECTION
2
TABLES
0
TABLE
2
LTYPE
70
1
0
LTYPE
2
CONTINUOUS
70
64
3
Solid line
72
65
73
0
40
0.0
0
ENDTAB
0
TABLE
2
LAYER
70
1
0
LAYER
2
PYDXF
70
64
62
7
6
continuous
0
ENDTAB
0
TABLE
2
STYLE
70
1
0
STYLE
2
STANDARD
70
0
40
0
41
40
50
50
71
0
42
1
3
ARIAL.TTF
4

0
ENDTAB
0
TABLE
2
VIEW
70
0
0
ENDTAB
0
ENDSEC
0
SECTION
2
BLOCKS
0
ENDSEC
0
SECTION
2
ENTITIES
0
LINE
8
drawinglayer
10
5685.500000000001
20
-1.3925458753104555e-12
11
5534.406954614416
21
-96.60343273197384
0
LINE
8
drawinglayer
10
5534.406954614416
20
-96.60343273197384
11
5738.002433330139
21
-200.3754603174085
0
LINE
8
drawinglayer
10
5738.002433330139
20
-200.3754603174085
11
5533.655909458785
21
-290.0066175312107
0
LINE
8
drawinglayer
10
5533.655909458785
20
-290.0066175312107
11
5626.011852452846
21
-393.40907279843276
0
LINE
8
drawinglayer
10
5626.011852452846
20
-393.40907279843276
11
5552.291149814343
21
-485.7625322040736
0
LINE
8
drawinglayer
10
5552.291149814343
20
-485.7625322040736
11
5629.988449679796
21
-591.7356305581911
0
LINE
8
drawinglayer
10
5629.988449679796
20
-591.7356305581911
11
5689.522677745966
21
-698.58554373416
0
LINE
8
drawinglayer
10
5689.522677745966
20
-698.58554373416
11
5692.060859126546
21
-799.9669843184588
0
LINE
8
drawinglayer
10
5692.060859126546
20
-799.9669843184588
11
5588.340631087289
21
-885.1062031976276
0
LINE
8
drawinglayer
10
5588.340631087289
20
-885.1062031976276
11
5670.030637967785
21
-999.7793829173512
0
LINE
8
drawinglayer
10
5670.030637967785
20
-999.7793829173512
11
5746.445531902625
21
-1116.9958589342925
0
LINE
8
drawinglayer
10
5746.445531902625
20
-1116.9958589342925
11
5616.034449613146
21
-1193.7249728301686
0
LINE
8
drawinglayer
10
5616.034449613146
20
-1193.7249728301686
11
5646.961710462831
21
-1303.7038354498718
0
LINE
8
drawinglayer
10
5646.961710462831
20
-1303.7038354498718
11
5750.700195706261
21
-1433.8105947453314
0
LINE
8
drawinglayer
10
5750.700195706261
20
-1433.8105947453314
11
5705.482374432956
21
-1528.7793946593144
0
LINE
8
drawinglayer
10
5705.482374432956
20
-1528.7793946593144
11
5665.195805012484
21
-1624.4687565074837
0
LINE
8
drawinglayer
10
5665.195805012484
20
-1624.4687565074837
11
5639.090069725027
21
-1724.0428498237998
0
LINE
8
drawinglayer
10
5639.090069725027
20
-1724.0428498237998
11
5691.359957639274
21
-1849.2349485882808
0
LINE
8
drawinglayer
10
5691.359957639274
20
-1849.2349485882808
11
5658.219536030214
21
-1948.2812283102405
0
LINE
8
drawinglayer
10
5658.219536030214
20
-1948.2812283102405
11
5251.472211262046
21
-1911.379570975503
0
LINE
8
drawinglayer
10
5251.472211262046
20
-1911.379570975503
11
4913.200389548147
21
-1886.0009264695314
0
LINE
8
drawinglayer
10
4913.200389548147
20
-1886.0009264695314
11
4852.880294802564
21
-1960.690909938885
0
LINE
8
drawinglayer
10
4852.880294802564
20
-1960.690909938885
11
4700.327907941524
21
-1995.170824848355
0
LINE
8
drawinglayer
10
4700.327907941524
20
-1995.170824848355
11
4430.467083202204
21
-1972.5710347568618
0
LINE
8
drawinglayer
10
4430.467083202204
20
-1972.5710347568618
11
4204.3618240630185
21
-1960.5261162151032
0
LINE
8
drawinglayer
10
4204.3618240630185
20
-1960.5261162151032
11
4133.329120418292
21
-2015.9593112962712
0
LINE
8
drawinglayer
10
4133.329120418292
20
-2015.9593112962712
11
3976.5621174526846
21
-2026.1596003375978
0
LINE
8
drawinglayer
10
3976.5621174526846
20
-2026.1596003375978
11
3876.8021433453323
21
-2061.3322643021497
0
LINE
8
drawinglayer
10
3876.8021433453323
20
-2061.3322643021497
11
3657.003650476597
21
-2027.1102246549995
0
LINE
8
drawinglayer
10
3657.003650476597
20
-2027.1102246549995
11
3598.3355527243416
21
-2077.500000000002
0
LINE
8
drawinglayer
10
3598.3355527243416
20
-2077.500000000002
11
3480.956408151279
21
-2091.569622209732
0
LINE
8
drawinglayer
10
3480.956408151279
20
-2091.569622209732
11
3375.4434347266138
21
-2109.211151464214
0
LINE
8
drawinglayer
10
3375.4434347266138
20
-2109.211151464214
11
3284.024276432295
21
-2132.6703013600927
0
LINE
8
drawinglayer
10
3284.024276432295
20
-2132.6703013600927
11
2171.663921307931
21
-1464.8058106416229
0
LINE
8
drawinglayer
10
2171.663921307931
20
-1464.8058106416229
11
2150.8884802918187
21
-1506.0683277487597
0
LINE
8
drawinglayer
10
2150.8884802918187
20
-1506.0683277487597
11
2030.8349101297113
21
-1475.487929567181
0
LINE
8
drawinglayer
10
2030.8349101297113
20
-1475.487929567181
11
2061.0785925545515
21
-1553.1341209996492
0
LINE
8
drawinglayer
10
2061.0785925545515
20
-1553.1341209996492
11
2033.6587523705487
21
-1588.8683524466928
0
LINE
8
drawinglayer
10
2033.6587523705487
20
-1588.8683524466928
11
1813.8586740405713
21
-1468.8337927103205
0
LINE
8
drawinglayer
10
1813.8586740405713
20
-1468.8337927103205
11
1782.0108858055228
21
-1495.2846770333133
0
LINE
8
drawinglayer
10
1782.0108858055228
20
-1495.2846770333133
11
1746.7753234256056
21
-1518.4486225985293
0
LINE
8
drawinglayer
10
1746.7753234256056
20
-1518.4486225985293
11
1731.1558709495894
21
-1558.7397475129621
0
LINE
8
drawinglayer
10
1731.1558709495894
20
-1558.7397475129621
11
1840.970384016692
21
-1777.8044345971894
0
LINE
8
drawinglayer
10
1840.970384016692
20
-1777.8044345971894
11
1802.5919619398062
21
-1802.591961939807
0
LINE
8
drawinglayer
10
1802.5919619398062
20
-1802.591961939807
11
1800.2071670444905
21
-1864.1690925776136
0
LINE
8
drawinglayer
10
1800.2071670444905
20
-1864.1690925776136
11
2100.554948992495
21
-2252.569400987044
0
LINE
8
drawinglayer
10
2100.554948992495
20
-2252.569400987044
11
1645.2248783848438
21
-1827.2073396425433
0
LINE
8
drawinglayer
10
1645.2248783848438
20
-1827.2073396425433
11
1986.054695511513
21
-2284.694576729388
0
LINE
8
drawinglayer
10
1986.054695511513
20
-2284.694576729388
11
1776.1828624663292
21
-2116.772307448516
0
LINE
8
drawinglayer
10
1776.1828624663292
20
-2116.772307448516
11
1697.2770946614105
21
-2095.9626580494523
0
LINE
8
drawinglayer
10
1697.2770946614105
20
-2095.9626580494523
11
1649.5110077662696
21
-2111.277811600812
0
LINE
8
drawinglayer
10
1649.5110077662696
20
-2111.277811600812
11
1507.6456629487247
21
-2153.141148413615
0
LINE
8
drawinglayer
10
1507.6456629487247
20
-2153.141148413615
11
1393.8674503622067
21
-2146.367651014327
0
LINE
8
drawinglayer
10
1393.8674503622067
20
-2146.367651014327
11
1331.422151385927
21
-2130.7208415930213
0
LINE
8
drawinglayer
10
1331.422151385927
20
-2130.7208415930213
11
1345.4082111837895
21
-2239.1352812590935
0
LINE
8
drawinglayer
10
1345.4082111837895
20
-2239.1352812590935
11
1326.3179185889178
21
-2392.7408638066026
0
LINE
8
drawinglayer
10
1326.3179185889178
20
-2392.7408638066026
11
1335.4118603444647
21
-2511.544427887217
0
LINE
8
drawinglayer
10
1335.4118603444647
20
-2511.544427887217
11
1283.0906498888942
21
-2518.2071889873755
0
LINE
8
drawinglayer
10
1283.0906498888942
20
-2518.2071889873755
11
1211.9866280851018
21
-2484.940839505622
0
LINE
8
drawinglayer
10
1211.9866280851018
20
-2484.940839505622
11
1167.2716389278103
21
-2503.222107795228
0
LINE
8
drawinglayer
10
1167.2716389278103
20
-2503.222107795228
11
1115.8819802784562
21
-2506.3119630424753
0
LINE
8
drawinglayer
10
1115.8819802784562
20
-2506.3119630424753
11
1068.9426847645304
21
-2518.2711528325153
0
LINE
8
drawinglayer
10
1068.9426847645304
20
-2518.2711528325153
11
1008.2536461789268
21
-2495.515344566508
0
LINE
8
drawinglayer
10
1008.2536461789268
20
-2495.515344566508
11
964.2785602390173
21
-2512.0315325973465
0
LINE
8
drawinglayer
10
964.2785602390173
20
-2512.0315325973465
11
934.4845366015591
21
-2567.475163142298
0
LINE
8
drawinglayer
10
934.4845366015591
20
-2567.475163142298
11
881.3943861541367
21
-2559.7551637912516
0
LINE
8
drawinglayer
10
881.3943861541367
20
-2559.7551637912516
11
830.8694436256391
21
-2557.1532081885935
0
LINE
8
drawinglayer
10
830.8694436256391
20
-2557.1532081885935
11
781.9481242809596
21
-2557.637069823139
0
LINE
8
drawinglayer
10
781.9481242809596
20
-2557.637069823139
11
735.745012014523
21
-2565.847781883357
0
LINE
8
drawinglayer
10
735.745012014523
20
-2565.847781883357
11
687.9410218824991
21
-2567.4308462763443
0
LINE
8
drawinglayer
10
687.9410218824991
20
-2567.4308462763443
11
686.8767420813558
21
-2754.9121408291235
0
LINE
8
drawinglayer
10
686.8767420813558
20
-2754.9121408291235
11
887.7130982044771
21
-3845.107868158735
0
LINE
8
drawinglayer
10
887.7130982044771
20
-3845.107868158735
11
817.7166799862475
21
-3847.054513686056
0
LINE
8
drawinglayer
10
817.7166799862475
20
-3847.054513686056
11
753.790936235038
21
-3877.9181882099965
0
LINE
8
drawinglayer
10
753.790936235038
20
-3877.9181882099965
11
693.246937290801
21
-3931.5987519629875
0
LINE
8
drawinglayer
10
693.246937290801
20
-3931.5987519629875
11
621.9443243836971
21
-3926.801920121119
0
LINE
8
drawinglayer
10
621.9443243836971
20
-3926.801920121119
11
554.1524947477405
21
-3942.9998827117474
0
LINE
8
drawinglayer
10
554.1524947477405
20
-3942.9998827117474
11
484.88765007323127
21
-3949.0930008429095
0
LINE
8
drawinglayer
10
484.88765007323127
20
-3949.0930008429095
11
417.4605501751927
21
-3971.8718196270415
0
LINE
8
drawinglayer
10
417.4605501751927
20
-3971.8718196270415
11
345.48536425171585
21
-3948.915783235679
0
LINE
8
drawinglayer
10
345.48536425171585
20
-3948.915783235679
11
277.0203963563572
21
-3961.5762345943263
0
LINE
8
drawinglayer
10
277.0203963563572
20
-3961.5762345943263
11
207.45973054702625
21
-3958.567475767131
0
LINE
8
drawinglayer
10
207.45973054702625
20
-3958.567475767131
11
137.66978961718843
21
-3942.346964883578
0
LINE
8
drawinglayer
10
137.66978961718843
20
-3942.346964883578
11
69.0766246787666
21
-3957.3971774289957
0
LINE
8
drawinglayer
10
69.0766246787666
20
-3957.3971774289957
11
-7.297823356968971e-13
21
-3972.75
0
LINE
8
drawinglayer
10
-7.297823356968971e-13
20
-3972.75
11
-69.49111933165356
21
-3981.1435601889607
0
LINE
8
drawinglayer
10
-69.49111933165356
20
-3981.1435601889607
11
-139.95570665120368
21
-4007.8070640533288
0
LINE
8
drawinglayer
10
-139.95570665120368
20
-4007.8070640533288
11
-208.23168590161112
21
-3973.297261404761
0
LINE
8
drawinglayer
10
-208.23168590161112
20
-3973.297261404761
11
-278.17137817313676
21
-3978.0360414236134
0
LINE
8
drawinglayer
10
-278.17137817313676
20
-3978.0360414236134
11
-350.4532415883338
21
-4005.698881026909
0
LINE
8
drawinglayer
10
-350.4532415883338
20
-4005.698881026909
11
-418.4013063446031
21
-3980.8225166853567
0
LINE
8
drawinglayer
10
-418.4013063446031
20
-3980.8225166853567
11
-491.34672527370566
21
-4001.6979468799004
0
LINE
8
drawinglayer
10
-491.34672527370566
20
-4001.6979468799004
11
-546.1500414425383
21
-3886.059468759107
0
LINE
8
drawinglayer
10
-546.1500414425383
20
-3886.059468759107
11
-530.3910537189037
21
-3348.757318787816
0
LINE
8
drawinglayer
10
-530.3910537189037
20
-3348.757318787816
11
-521.5523016226255
21
-2957.8700861721677
0
LINE
8
drawinglayer
10
-521.5523016226255
20
-2957.8700861721677
11
-566.177991531052
21
-2912.733260085081
0
LINE
8
drawinglayer
10
-566.177991531052
20
-2912.733260085081
11
-579.3459264636879
21
-2725.6082894447504
0
LINE
8
drawinglayer
10
-579.3459264636879
20
-2725.6082894447504
11
-630.4253297986826
21
-2730.6721065606225
0
LINE
8
drawinglayer
10
-630.4253297986826
20
-2730.6721065606225
11
-679.0747609482676
21
-2723.6201036567227
0
LINE
8
drawinglayer
10
-679.0747609482676
20
-2723.6201036567227
11
-726.3109453189483
21
-2710.629350023697
0
LINE
8
drawinglayer
10
-726.3109453189483
20
-2710.629350023697
11
-781.9831784528262
21
-2727.0994313770125
0
LINE
8
drawinglayer
10
-781.9831784528262
20
-2727.0994313770125
11
-832.7477079765359
21
-2723.7950211717152
0
LINE
8
drawinglayer
10
-832.7477079765359
20
-2723.7950211717152
11
-962.8969544723366
21
-2963.4921047756984
0
LINE
8
drawinglayer
10
-962.8969544723366
20
-2963.4921047756984
11
-1039.1321569886295
21
-3017.858913669119
0
LINE
8
drawinglayer
10
-1039.1321569886295
20
-3017.858913669119
11
-1097.628144967904
21
-3015.708543257175
0
LINE
8
drawinglayer
10
-1097.628144967904
20
-3015.708543257175
11
-1162.7248122997285
21
-3029.0016937701716
0
LINE
8
drawinglayer
10
-1162.7248122997285
20
-3029.0016937701716
11
-1537.3316250410478
21
-3621.726345908626
0
LINE
8
drawinglayer
10
-1537.3316250410478
20
-3621.726345908626
11
-1628.6752030362725
21
-3658.064398765385
0
LINE
8
drawinglayer
10
-1628.6752030362725
20
-3658.064398765385
11
-1786.625000000002
21
-3094.525274072745
0
LINE
8
drawinglayer
10
-1786.625000000002
20
-3094.525274072745
11
-2092.3421793220964
21
-3482.2421591023303
0
LINE
8
drawinglayer
10
-2092.3421793220964
20
-3482.2421591023303
11
-2178.7630548948227
21
-3486.7497473471462
0
LINE
8
drawinglayer
10
-2178.7630548948227
20
-3486.7497473471462
11
-2254.1248061684432
21
-3471.0478130841248
0
LINE
8
drawinglayer
10
-2254.1248061684432
20
-3471.0478130841248
11
-2343.5774584459023
21
-3474.4964665781795
0
LINE
8
drawinglayer
10
-2343.5774584459023
20
-3474.4964665781795
11
-2431.820696019349
21
-3472.999879774252
0
LINE
8
drawinglayer
10
-2431.820696019349
20
-3472.999879774252
11
-2529.5338332406586
21
-3481.604635292586
0
LINE
8
drawinglayer
10
-2529.5338332406586
20
-3481.604635292586
11
-2660.1728560878414
21
-3530.168613286546
0
LINE
8
drawinglayer
10
-2660.1728560878414
20
-3530.168613286546
11
-2853.181322922199
21
-3523.3855027555423
0
LINE
8
drawinglayer
10
-2853.181322922199
20
-3523.3855027555423
11
-2928.058259024609
21
-3489.5239495177243
0
LINE
8
drawinglayer
10
-2928.058259024609
20
-3489.5239495177243
11
-1548.0336578112187
21
-1719.2655537419507
0
LINE
8
drawinglayer
10
-1548.0336578112187
20
-1719.2655537419507
11
-1423.528665663101
21
-1474.1070858439807
0
LINE
8
drawinglayer
10
-1423.528665663101
20
-1474.1070858439807
11
-1760.7374506597262
21
-1530.585714634853
0
LINE
8
drawinglayer
10
-1760.7374506597262
20
-1530.585714634853
11
-1808.6129388007357
21
-1464.5858800707335
0
LINE
8
drawinglayer
10
-1808.6129388007357
20
-1464.5858800707335
11
-1805.7266418898037
21
-1410.7882707087447
0
LINE
8
drawinglayer
10
-1805.7266418898037
20
-1410.7882707087447
11
-1782.75411730307
21
-1343.4015854311592
0
LINE
8
drawinglayer
10
-1782.75411730307
20
-1343.4015854311592
11
-1814.216990089045
21
-1270.3284124084787
0
LINE
8
drawinglayer
10
-1814.216990089045
20
-1270.3284124084787
11
-1802.7422015209393
21
-1215.9649685971392
0
LINE
8
drawinglayer
10
-1802.7422015209393
20
-1215.9649685971392
11
-1807.5447415643753
21
-1173.8332802161372
0
LINE
8
drawinglayer
10
-1807.5447415643753
20
-1173.8332802161372
11
-1808.250553029539
21
-1129.9203511612507
0
LINE
8
drawinglayer
10
-1808.250553029539
20
-1129.9203511612507
11
-1825.1234750199724
21
-1096.6448210022327
0
LINE
8
drawinglayer
10
-1825.1234750199724
20
-1096.6448210022327
11
-1817.5708161925904
21
-1049.3750000000002
0
LINE
8
drawinglayer
10
-1817.5708161925904
20
-1049.3750000000002
11
-1816.585131728524
21
-1006.9495812516423
0
LINE
8
drawinglayer
10
-1816.585131728524
20
-1006.9495812516423
11
-1792.1628766054073
21
-952.9099045646611
0
LINE
8
drawinglayer
10
-1792.1628766054073
20
-952.9099045646611
11
-1821.8855903341657
21
-928.2970743424372
0
LINE
8
drawinglayer
10
-1821.8855903341657
20
-928.2970743424372
11
-1823.8778184525852
21
-889.5646496217347
0
LINE
8
drawinglayer
10
-1823.8778184525852
20
-889.5646496217347
11
-1941.3112798325049
21
-905.248316648578
0
LINE
8
drawinglayer
10
-1941.3112798325049
20
-905.248316648578
11
-2049.767620585586
21
-912.6153429013257
0
LINE
8
drawinglayer
10
-2049.767620585586
20
-912.6153429013257
11
-2132.8097454493045
21
-905.3240247096468
0
LINE
8
drawinglayer
10
-2132.8097454493045
20
-905.3240247096468
11
-2113.5155964849914
21
-853.9157296915713
0
LINE
8
drawinglayer
10
-2113.5155964849914
20
-853.9157296915713
11
-2114.793061122787
21
-811.7929977074922
0
LINE
8
drawinglayer
10
-2114.793061122787
20
-811.7929977074922
11
-2112.1940883715247
21
-768.7757771602714
0
LINE
8
drawinglayer
10
-2112.1940883715247
20
-768.7757771602714
11
-2128.8350729618614
21
-733.0166997602885
0
LINE
8
drawinglayer
10
-2128.8350729618614
20
-733.0166997602885
11
-2142.730331212981
21
-696.2152883267572
0
LINE
8
drawinglayer
10
-2142.730331212981
20
-696.2152883267572
11
-2137.8192819553665
21
-653.5969459076783
0
LINE
8
drawinglayer
10
-2137.8192819553665
20
-653.5969459076783
11
-2151.784306357928
21
-617.0142209963516
0
LINE
8
drawinglayer
10
-2151.784306357928
20
-617.0142209963516
11
-2149.2167704000335
21
-496.1857881189804
0
LINE
8
drawinglayer
10
-2149.2167704000335
20
-496.1857881189804
11
-3323.0534227662047
21
-645.936151598448
0
LINE
8
drawinglayer
10
-3323.0534227662047
20
-645.936151598448
11
-3318.8021276511404
21
-585.1943587375556
0
LINE
8
drawinglayer
10
-3318.8021276511404
20
-585.1943587375556
11
-3328.5097078056137
21
-527.1841471855774
0
LINE
8
drawinglayer
10
-3328.5097078056137
20
-527.1841471855774
11
-3345.868237260579
21
-470.2311148688212
0
LINE
8
drawinglayer
10
-3345.868237260579
20
-470.2311148688212
11
-3337.436434893944
21
-409.7856671998091
0
LINE
8
drawinglayer
10
-3337.436434893944
20
-409.7856671998091
11
-4995.483480434835
21
-525.0464709934233
0
LINE
8
drawinglayer
10
-4995.483480434835
20
-525.0464709934233
11
-5350.312674776243
21
-468.0917053619839
0
LINE
8
drawinglayer
10
-5350.312674776243
20
-468.0917053619839
11
-5349.437219518306
21
-374.06909045286926
0
LINE
8
drawinglayer
10
-5349.437219518306
20
-374.06909045286926
11
-5374.374498665426
21
-281.65903251046143
0
LINE
8
drawinglayer
10
-5374.374498665426
20
-281.65903251046143
11
-5348.2400107926915
21
-186.7646566034336
0
LINE
8
drawinglayer
10
-5348.2400107926915
20
-186.7646566034336
11
-5259.4488384464075
21
-91.80402096171892
0
LINE
8
drawinglayer
10
-5259.4488384464075
20
-91.80402096171892
11
-5252.250000000002
21
6.432151150821688e-13
0
LINE
8
drawinglayer
10
-5252.250000000002
20
6.432151150821688e-13
11
-5293.943583929301
21
92.40612898380645
0
LINE
8
drawinglayer
10
-5293.943583929301
20
92.40612898380645
11
-4744.3581035664
21
165.6766357209485
0
LINE
8
drawinglayer
10
-4744.3581035664
20
165.6766357209485
11
-4113.854368421467
21
215.59797174280888
0
LINE
8
drawinglayer
10
-4113.854368421467
20
215.59797174280888
11
-3689.740030898524
21
258.0117572610842
0
LINE
8
drawinglayer
10
-3689.740030898524
20
258.0117572610842
11
-3565.629873144881
21
311.9521922295557
0
LINE
8
drawinglayer
10
-3565.629873144881
20
311.9521922295557
11
-3374.1641605107097
21
354.63894375133225
0
LINE
8
drawinglayer
10
-3374.1641605107097
20
354.63894375133225
11
-3307.163777268885
21
406.0686522259516
0
LINE
8
drawinglayer
10
-3307.163777268885
20
406.0686522259516
11
-3038.390001916323
21
427.01786702072036
0
LINE
8
drawinglayer
10
-3038.390001916323
20
427.01786702072036
11
-2181.062778119213
21
345.44640742509006
0
LINE
8
drawinglayer
10
-2181.062778119213
20
345.44640742509006
11
-1996.2053153557463
21
351.98485613086865
0
LINE
8
drawinglayer
10
-1996.2053153557463
20
351.98485613086865
11
-1881.0430902815863
21
365.6377373903043
0
LINE
8
drawinglayer
10
-1881.0430902815863
20
365.6377373903043
11
-1872.2520794848303
21
432.24345092173724
0
LINE
8
drawinglayer
10
-1872.2520794848303
20
432.24345092173724
11
-1894.5024055538834
21
472.3525011583513
0
LINE
8
drawinglayer
10
-1894.5024055538834
20
472.3525011583513
11
-1895.1464711791523
21
507.8029664911464
0
LINE
8
drawinglayer
10
-1895.1464711791523
20
507.8029664911464
11
-1898.0112186302101
21
544.2459590606649
0
LINE
8
drawinglayer
10
-1898.0112186302101
20
544.2459590606649
11
-1901.3997402030864
21
617.802226004114
0
LINE
8
drawinglayer
10
-1901.3997402030864
20
617.802226004114
11
-1868.3447053842497
21
643.3226732073413
0
LINE
8
drawinglayer
10
-1868.3447053842497
20
643.3226732073413
11
-1901.233095005089
21
691.9922549836596
0
LINE
8
drawinglayer
10
-1901.233095005089
20
691.9922549836596
11
-1912.672898786141
21
734.2063366309344
0
LINE
8
drawinglayer
10
-1912.672898786141
20
734.2063366309344
11
-1901.4222897528396
21
768.2244714476822
0
LINE
8
drawinglayer
10
-1901.4222897528396
20
768.2244714476822
11
-1916.0308524612537
21
813.306843950423
0
LINE
8
drawinglayer
10
-1916.0308524612537
20
813.306843950423
11
-1884.4158927522756
21
838.9960105046067
0
LINE
8
drawinglayer
10
-1884.4158927522756
20
838.9960105046067
11
-1914.1220462214055
21
892.5697687963577
0
LINE
8
drawinglayer
10
-1914.1220462214055
20
892.5697687963577
11
-1890.1638793671482
21
921.8945216974306
0
LINE
8
drawinglayer
10
-1890.1638793671482
20
921.8945216974306
11
-1851.0660540013341
21
943.1652632089086
0
LINE
8
drawinglayer
10
-1851.0660540013341
20
943.1652632089086
11
-5142.72825460682
21
2734.4371174464204
0
LINE
8
drawinglayer
10
-5142.72825460682
20
2734.4371174464204
11
-5174.906152217022
21
2868.4973205925166
0
LINE
8
drawinglayer
10
-5174.906152217022
20
2868.4973205925166
11
-5078.156461441001
21
2931.8749999999986
0
LINE
8
drawinglayer
10
-5078.156461441001
20
2931.8749999999986
11
-4813.4229770927095
21
2892.1963096574095
0
LINE
8
drawinglayer
10
-4813.4229770927095
20
2892.1963096574095
11
-4821.57745069736
21
3012.855976797887
0
LINE
8
drawinglayer
10
-4821.57745069736
20
3012.855976797887
11
-2885.8654243002047
21
1874.1029194867097
0
LINE
8
drawinglayer
10
-2885.8654243002047
20
1874.1029194867097
11
-2772.7161614103356
21
1870.2206656579121
0
LINE
8
drawinglayer
10
-2772.7161614103356
20
1870.2206656579121
11
-2608.877552610611
21
1895.4604923301529
0
LINE
8
drawinglayer
10
-2608.877552610611
20
1895.4604923301529
11
-2524.886165014517
21
1902.6381956952025
0
LINE
8
drawinglayer
10
-2524.886165014517
20
1902.6381956952025
11
-1965.4021365246783
21
1591.551268965038
0
LINE
8
drawinglayer
10
-1965.4021365246783
20
1591.551268965038
11
-1953.4133299533933
21
1639.1084047006755
0
LINE
8
drawinglayer
10
-1953.4133299533933
20
1639.1084047006755
11
-1941.4903951230804
21
1687.7118520780793
0
LINE
8
drawinglayer
10
-1941.4903951230804
20
1687.7118520780793
11
-1955.2140358310246
21
1760.4826253301555
0
LINE
8
drawinglayer
10
-1955.2140358310246
20
1760.4826253301555
11
-1918.5235977724885
21
1789.052198033949
0
LINE
8
drawinglayer
10
-1918.5235977724885
20
1789.052198033949
11
-1808.7791462751884
21
1808.7791462751886
0
LINE
8
drawinglayer
10
-1808.7791462751884
20
1808.7791462751886
11
-1741.1612055554772
21
1803.0252095488293
0
LINE
8
drawinglayer
10
-1741.1612055554772
20
1803.0252095488293
11
-1672.9419772333092
21
1794.010630071826
0
LINE
8
drawinglayer
10
-1672.9419772333092
20
1794.010630071826
11
-1611.4337827637196
21
1789.6785259559351
0
LINE
8
drawinglayer
10
-1611.4337827637196
20
1789.6785259559351
11
-1590.6151157874851
21
1829.7933772501117
0
LINE
8
drawinglayer
10
-1590.6151157874851
20
1829.7933772501117
11
-1526.2991792006874
21
1818.972530186013
0
LINE
8
drawinglayer
10
-1526.2991792006874
20
1818.972530186013
11
-1468.5191325147955
21
1813.4701010598421
0
LINE
8
drawinglayer
10
-1468.5191325147955
20
1813.4701010598421
11
-1416.7909700931716
21
1813.4097467374697
0
LINE
8
drawinglayer
10
-1416.7909700931716
20
1813.4097467374697
11
-1381.767293157103
21
1833.667131068584
0
LINE
8
drawinglayer
10
-1381.767293157103
20
1833.667131068584
11
-1331.480542755525
21
1832.6257465078504
0
LINE
8
drawinglayer
10
-1331.480542755525
20
1832.6257465078504
11
-1027.2753975047228
21
1467.1013113215845
0
LINE
8
drawinglayer
10
-1027.2753975047228
20
1467.1013113215845
11
-978.0283881703359
21
1449.986714398768
0
LINE
8
drawinglayer
10
-978.0283881703359
20
1449.986714398768
11
-957.4754235564174
21
1474.382858448055
0
LINE
8
drawinglayer
10
-957.4754235564174
20
1474.382858448055
11
-921.1321610533683
21
1474.1196031439079
0
LINE
8
drawinglayer
10
-921.1321610533683
20
1474.1196031439079
11
-885.3504507703835
21
1473.4705899069315
0
LINE
8
drawinglayer
10
-885.3504507703835
20
1473.4705899069315
11
-845.9999999999995
21
1465.31498320327
0
LINE
8
drawinglayer
10
-845.9999999999995
20
1465.31498320327
11
-819.6918654314946
21
1478.7632698459342
0
LINE
8
drawinglayer
10
-819.6918654314946
20
1478.7632698459342
11
-787.1864429012415
21
1480.4823763262052
0
LINE
8
drawinglayer
10
-787.1864429012415
20
1480.4823763262052
11
-754.1917176923217
21
1480.1845883079259
0
LINE
8
drawinglayer
10
-754.1917176923217
20
1480.1845883079259
11
-719.3670518808759
21
1474.9210299769322
0
LINE
8
drawinglayer
10
-719.3670518808759
20
1474.9210299769322
11
-691.1921670769137
21
1482.2663856984411
0
LINE
8
drawinglayer
10
-691.1921670769137
20
1482.2663856984411
11
-664.0992539820129
21
1491.5913459659575
0
LINE
8
drawinglayer
10
-664.0992539820129
20
1491.5913459659575
11
-631.0307725101765
21
1486.6153383256903
0
LINE
8
drawinglayer
10
-631.0307725101765
20
1486.6153383256903
11
-593.3768439708047
21
1468.659225633791
0
LINE
8
drawinglayer
10
-593.3768439708047
20
1468.659225633791
11
-562.9960487356669
21
1466.6548500271047
0
LINE
8
drawinglayer
10
-562.9960487356669
20
1466.6548500271047
11
-536.8861199854683
21
1475.0824914786792
0
LINE
8
drawinglayer
10
-536.8861199854683
20
1475.0824914786792
11
-508.37467318484966
21
1476.4272557983331
0
LINE
8
drawinglayer
10
-508.37467318484966
20
1476.4272557983331
11
-479.362612524137
21
1475.3264209028569
0
LINE
8
drawinglayer
10
-479.362612524137
20
1475.3264209028569
11
-451.64119087044753
21
1477.2517717738995
0
LINE
8
drawinglayer
10
-451.64119087044753
20
1477.2517717738995
11
-423.86134390759014
21
1478.1801729291494
0
LINE
8
drawinglayer
10
-423.86134390759014
20
1478.1801729291494
11
-397.41664375492064
21
1483.179106266864
0
LINE
8
drawinglayer
10
-397.41664375492064
20
1483.179106266864
11
-368.2656055765939
21
1477.0326693236354
0
LINE
8
drawinglayer
10
-368.2656055765939
20
1477.0326693236354
11
-342.2067914206042
21
1482.2604610545384
0
LINE
8
drawinglayer
10
-342.2067914206042
20
1482.2604610545384
11
-315.03818951160963
21
1482.1381520118998
0
LINE
8
drawinglayer
10
-315.03818951160963
20
1482.1381520118998
11
-289.4572459862184
21
1489.128437290106
0
LINE
8
drawinglayer
10
-289.4572459862184
20
1489.128437290106
11
-262.68628076564886
21
1489.767928369218
0
LINE
8
drawinglayer
10
-262.68628076564886
20
1489.767928369218
11
-235.27743542050754
21
1485.4832642550875
0
LINE
8
drawinglayer
10
-235.27743542050754
20
1485.4832642550875
11
-209.24675729345788
21
1488.8680413529505
0
LINE
8
drawinglayer
10
-209.24675729345788
20
1488.8680413529505
11
-183.13915580208516
21
1491.5487293789963
0
LINE
8
drawinglayer
10
-183.13915580208516
20
1491.5487293789963
11
-156.7404306698462
21
1491.2855821047265
0
LINE
8
drawinglayer
10
-156.7404306698462
20
1491.2855821047265
11
-130.5810915716789
21
1492.5487064159572
0
LINE
8
drawinglayer
10
-130.5810915716789
20
1492.5487064159572
11
-104.44288031339168
21
1493.6027742515223
0
LINE
8
drawinglayer
10
-104.44288031339168
20
1493.6027742515223
11
-78.1899186269581
21
1491.9525249233334
0
LINE
8
drawinglayer
10
-78.1899186269581
20
1491.9525249233334
11
-52.340520179575456
21
1498.8363928218885
0
LINE
8
drawinglayer
10
-52.340520179575456
20
1498.8363928218885
11
-26.226603773627737
21
1502.5211238962665
0
LINE
8
drawinglayer
10
-26.226603773627737
20
1502.5211238962665
11
9.183320185106212e-14
21
1499.7499999999995
0
LINE
8
drawinglayer
10
9.183320185106212e-14
20
1499.7499999999995
11
26.196062062362685
21
1500.7713904297436
0
LINE
8
drawinglayer
10
26.196062062362685
20
1500.7713904297436
11
52.427768921332245
21
1501.3348698894365
0
LINE
8
drawinglayer
10
52.427768921332245
20
1501.3348698894365
11
78.80486611281286
21
1503.6864219566992
0
LINE
8
drawinglayer
10
78.80486611281286
20
1503.6864219566992
11
105.07068857708866
21
1502.5808507038607
0
LINE
8
drawinglayer
10
105.07068857708866
20
1502.5808507038607
11
131.56159367759025
21
1503.7558967694895
0
LINE
8
drawinglayer
10
131.56159367759025
20
1503.7558967694895
11
158.04703646069206
21
1503.7171057968294
0
LINE
8
drawinglayer
10
158.04703646069206
20
1503.7171057968294
11
184.44925124369075
21
1502.218600509141
0
LINE
8
drawinglayer
10
184.44925124369075
20
1502.218600509141
11
211.82145966121954
21
1507.1880006246695
0
LINE
8
drawinglayer
10
211.82145966121954
20
1507.1880006246695
11
238.75810226765253
21
1507.4593298333295
0
LINE
8
drawinglayer
10
238.75810226765253
20
1507.4593298333295
11
266.89724907407196
21
1513.6495163797633
0
LINE
8
drawinglayer
10
266.89724907407196
20
1513.6495163797633
11
293.8458528798791
21
1511.705862509402
0
LINE
8
drawinglayer
10
293.8458528798791
20
1511.705862509402
11
322.2631207675269
21
1516.1287811373993
0
LINE
8
drawinglayer
10
322.2631207675269
20
1516.1287811373993
11
349.57393845036626
21
1514.1710806762549
0
LINE
8
drawinglayer
10
349.57393845036626
20
1514.1710806762549
11
378.48680566568
21
1518.027663758796
0
LINE
8
drawinglayer
10
378.48680566568
20
1518.027663758796
11
409.19291030708524
21
1527.1287313630169
0
LINE
8
drawinglayer
10
409.19291030708524
20
1527.1287313630169
11
436.8852089699438
21
1523.5997880622358
0
LINE
8
drawinglayer
10
436.8852089699438
20
1523.5997880622358
11
467.42926292547526
21
1528.8922285959025
0
LINE
8
drawinglayer
10
467.42926292547526
20
1528.8922285959025
11
496.20403871757185
21
1527.1590010409427
0
LINE
8
drawinglayer
10
496.20403871757185
20
1527.1590010409427
11
527.664586336437
21
1532.449231402593
0
LINE
8
drawinglayer
10
527.664586336437
20
1532.449231402593
11
554.2436422592464
21
1522.7718919835647
0
LINE
8
drawinglayer
10
554.2436422592464
20
1522.7718919835647
11
587.5442532795194
21
1530.6051092421617
0
LINE
8
drawinglayer
10
587.5442532795194
20
1530.6051092421617
11
618.7564406747331
21
1531.475931780691
0
LINE
8
drawinglayer
10
618.7564406747331
20
1531.475931780691
11
651.9348878843535
21
1535.8623479853975
0
LINE
8
drawinglayer
10
651.9348878843535
20
1535.8623479853975
11
694.1977655696223
21
1559.193709831509
0
LINE
8
drawinglayer
10
694.1977655696223
20
1559.193709831509
11
722.0433001839851
21
1548.426854152117
0
LINE
8
drawinglayer
10
722.0433001839851
20
1548.426854152117
11
759.1492334519846
21
1556.4865896785818
0
LINE
8
drawinglayer
10
759.1492334519846
20
1556.4865896785818
11
793.1214030449884
21
1556.5883977570788
0
LINE
8
drawinglayer
10
793.1214030449884
20
1556.5883977570788
11
830.6125624589374
21
1562.1550286656563
0
LINE
8
drawinglayer
10
830.6125624589374
20
1562.1550286656563
11
863.6883384688498
21
1558.1350082688339
0
LINE
8
drawinglayer
10
863.6883384688498
20
1558.1350082688339
11
898.0000000000001
21
1555.3816251968515
0
LINE
8
drawinglayer
10
898.0000000000001
20
1555.3816251968515
11
942.390917566672
21
1568.40186845969
0
LINE
8
drawinglayer
10
942.390917566672
20
1568.40186845969
11
983.1327149686537
21
1573.3412303942096
0
LINE
8
drawinglayer
10
983.1327149686537
20
1573.3412303942096
11
1025.2829834157885
21
1578.7973441572603
0
LINE
8
drawinglayer
10
1025.2829834157885
20
1578.7973441572603
11
1060.0899467546683
21
1571.6479781712203
0
LINE
8
drawinglayer
10
1060.0899467546683
20
1571.6479781712203
11
1102.270516557623
21
1574.20544111237
0
LINE
8
drawinglayer
10
1102.270516557623
20
1574.20544111237
11
1137.3644631859356
21
1565.4478841155233
0
LINE
8
drawinglayer
10
1137.3644631859356
20
1565.4478841155233
11
1402.8308189674253
21
1861.6193739202404
0
LINE
8
drawinglayer
10
1402.8308189674253
20
1861.6193739202404
11
1479.74235594522
21
1893.9838462937564
0
LINE
8
drawinglayer
10
1479.74235594522
20
1893.9838462937564
11
1516.662142430108
21
1872.921767111299
0
LINE
8
drawinglayer
10
1516.662142430108
20
1872.921767111299
11
1583.0251857555247
21
1886.575952291263
0
LINE
8
drawinglayer
10
1583.0251857555247
20
1886.575952291263
11
1645.5600594654395
21
1893.000304593767
0
LINE
8
drawinglayer
10
1645.5600594654395
20
1893.000304593767
11
1722.1748981161109
21
1912.6689945724424
0
LINE
8
drawinglayer
10
1722.1748981161109
20
1912.6689945724424
11
1809.1711496557925
21
1940.098531970254
0
LINE
8
drawinglayer
10
1809.1711496557925
20
1940.098531970254
11
1835.2874147526716
21
1900.4957524947167
0
LINE
8
drawinglayer
10
1835.2874147526716
20
1900.4957524947167
11
1920.1484643120693
21
1920.1484643120689
0
LINE
8
drawinglayer
10
1920.1484643120693
20
1920.1484643120689
11
1976.9256062806976
21
1909.0948666139386
0
LINE
8
drawinglayer
10
1976.9256062806976
20
1909.0948666139386
11
1965.8787499523305
21
1833.2115918479963
0
LINE
8
drawinglayer
10
1965.8787499523305
20
1833.2115918479963
11
1984.1966840246432
21
1786.5787189781522
0
LINE
8
drawinglayer
10
1984.1966840246432
20
1786.5787189781522
11
1983.7541316155566
21
1724.4511577015487
0
LINE
8
drawinglayer
10
1983.7541316155566
20
1724.4511577015487
11
1976.586174357743
21
1658.552729893693
0
LINE
8
drawinglayer
10
1976.586174357743
20
1658.552729893693
11
2009.1165968566345
21
1626.9505409615927
0
LINE
8
drawinglayer
10
2009.1165968566345
20
1626.9505409615927
11
2104.973725571956
21
1644.5857159636648
0
LINE
8
drawinglayer
10
2104.973725571956
20
1644.5857159636648
11
2135.551353866461
21
1609.253371908577
0
LINE
8
drawinglayer
10
2135.551353866461
20
1609.253371908577
11
2137.4228991386117
21
1552.9286365567145
0
LINE
8
drawinglayer
10
2137.4228991386117
20
1552.9286365567145
11
2251.8489697504388
21
1576.7616235290259
0
LINE
8
drawinglayer
10
2251.8489697504388
20
1576.7616235290259
11
2347.4198866896
21
1583.354706177419
0
LINE
8
drawinglayer
10
2347.4198866896
20
1583.354706177419
11
2404.2588506575457
21
1561.3439536293292
0
LINE
8
drawinglayer
10
2404.2588506575457
20
1561.3439536293292
11
2499.833775445104
21
1562.0695111434295
0
LINE
8
drawinglayer
10
2499.833775445104
20
1562.0695111434295
11
2572.1447775818624
21
1545.5005032863444
0
LINE
8
drawinglayer
10
2572.1447775818624
20
1545.5005032863444
11
2869.3586690887905
21
1656.624999999999
0
LINE
8
drawinglayer
10
2869.3586690887905
20
1656.624999999999
11
3037.3355879683368
21
1683.622608710467
0
LINE
8
drawinglayer
10
3037.3355879683368
20
1683.622608710467
11
3094.510576072325
21
1645.380459673851
0
LINE
8
drawinglayer
10
3094.510576072325
20
1645.380459673851
11
3226.111872455033
21
1643.786101931964
0
LINE
8
drawinglayer
10
3226.111872455033
20
1643.786101931964
11
3435.6402419785654
21
1675.673708601248
0
LINE
8
drawinglayer
10
3435.6402419785654
20
1675.673708601248
11
3651.287497023904
21
1702.6233219878432
0
LINE
8
drawinglayer
10
3651.287497023904
20
1702.6233219878432
11
3913.8571269053127
21
1742.5614630974967
0
LINE
8
drawinglayer
10
3913.8571269053127
20
1742.5614630974967
11
3979.112355261537
21
1689.032985677008
0
LINE
8
drawinglayer
10
3979.112355261537
20
1689.032985677008
11
4210.805475515065
21
1701.2758439983645
0
LINE
8
drawinglayer
10
4210.805475515065
20
1701.2758439983645
11
4816.574815405688
21
1848.9098436915904
0
LINE
8
drawinglayer
10
4816.574815405688
20
1848.9098436915904
11
4793.841904939312
21
1744.8157611758993
0
LINE
8
drawinglayer
10
4793.841904939312
20
1744.8157611758993
11
4887.621896916769
21
1682.9431824276576
0
LINE
8
drawinglayer
10
4887.621896916769
20
1682.9431824276576
11
5158.055016126766
21
1675.9536689925276
0
LINE
8
drawinglayer
10
5158.055016126766
20
1675.9536689925276
11
5530.071327545241
21
1690.7124754854049
0
LINE
8
drawinglayer
10
5530.071327545241
20
1690.7124754854049
11
5564.984273210912
21
1595.733562163562
0
LINE
8
drawinglayer
10
5564.984273210912
20
1595.733562163562
11
5495.754993627245
21
1370.2456166765182
0
LINE
8
drawinglayer
10
5495.754993627245
20
1370.2456166765182
11
5477.421319190198
21
1264.5623519940366
0
LINE
8
drawinglayer
10
5477.421319190198
20
1264.5623519940366
11
5478.115637909677
21
1164.4094244248606
0
LINE
8
drawinglayer
10
5478.115637909677
20
1164.4094244248606
11
5556.991485497227
21
1080.1697228266203
0
LINE
8
drawinglayer
10
5556.991485497227
20
1080.1697228266203
11
5572.042266543073
21
982.5013892394918
0
LINE
8
drawinglayer
10
5572.042266543073
20
982.5013892394918
11
5513.770161372355
21
873.2954010870885
0
LINE
8
drawinglayer
10
5513.770161372355
20
873.2954010870885
11
5578.675165255636
21
784.0316642585285
0
LINE
8
drawinglayer
10
5578.675165255636
20
784.0316642585285
11
5603.6674356289905
21
688.0438455296111
0
LINE
8
drawinglayer
10
5603.6674356289905
20
688.0438455296111
11
5528.298585878391
21
581.0475951890688
0
LINE
8
drawinglayer
10
5528.298585878391
20
581.0475951890688
11
5546.563030300318
21
485.2613866832739
0
LINE
8
drawinglayer
10
5546.563030300318
20
485.2613866832739
11
5634.989928905185
21
394.036881062128
0
LINE
8
drawinglayer
10
5634.989928905185
20
394.036881062128
11
5610.800041018571
21
294.0495701509798
0
LINE
8
drawinglayer
10
5610.800041018571
20
294.0495701509798
11
5526.1315780020905
21
192.9767670164791
0
LINE
8
drawinglayer
10
5526.1315780020905
20
192.9767670164791
11
5575.650672039615
21
97.32334449751148
0
LINE
8
drawinglayer
10
5575.650672039615
20
97.32334449751148
11
5685.500000000001
21
-1.3925458753104555e-12
0
ENDSEC
0
EOF
