0
SECTION
2
HEADER
9
$ACADVER
1
AC1006
9
$INSBASE
10
0.0
20
0.0
30
0.0
9
$EXTMIN
10
0.0
20
0.0
9
$EXTMAX
10
0.0
20
0.0
0
ENDSEC
0
SECTION
2
TABLES
0
TABLE
2
LTYPE
70
1
0
LTYPE
2
CONTINUOUS
70
64
3
Solid line
72
65
73
0
40
0.0
0
ENDTAB
0
TABLE
2
LAYER
70
1
0
LAYER
2
PYDXF
70
64
62
7
6
continuous
0
ENDTAB
0
TABLE
2
STYLE
70
1
0
STYLE
2
STANDARD
70
0
40
0
41
40
50
50
71
0
42
1
3
ARIAL.TTF
4

0
ENDTAB
0
TABLE
2
VIEW
70
0
0
ENDTAB
0
ENDSEC
0
SECTION
2
BLOCKS
0
ENDSEC
0
SECTION
2
ENTITIES
0
LINE
8
drawinglayer
10
3233.0075222881915
20
56.43235621495624
11
3280.5003896901812
21
114.55759792595941
0
LINE
8
drawinglayer
10
3280.5003896901812
20
114.55759792595941
11
3235.0603778374425
21
169.54233024901654
0
LINE
8
drawinglayer
10
3235.0603778374425
20
169.54233024901654
11
3215.8971070251096
21
224.87743223262405
0
LINE
8
drawinglayer
10
3215.8971070251096
20
224.87743223262405
11
4323.983087067222
21
378.29950139621036
0
LINE
8
drawinglayer
10
4323.983087067222
20
378.29950139621036
11
5311.492812688106
21
558.2603901967202
0
LINE
8
drawinglayer
10
5311.492812688106
20
558.2603901967202
11
5303.422224757492
21
651.178369149554
0
LINE
8
drawinglayer
10
5303.422224757492
20
651.178369149554
11
5367.995633630867
21
754.4225870292746
0
LINE
8
drawinglayer
10
5367.995633630867
20
754.4225870292746
11
5258.699647413664
21
832.8962004904495
0
LINE
8
drawinglayer
10
5258.699647413664
20
832.8962004904495
11
5056.003003964676
21
891.5097441420203
0
LINE
8
drawinglayer
10
5056.003003964676
20
891.5097441420203
11
5032.0663491485875
21
978.1346125490128
0
LINE
8
drawinglayer
10
5032.0663491485875
20
978.1346125490128
11
5024.255151169192
21
1067.9383998854205
0
LINE
8
drawinglayer
10
5024.255151169192
20
1067.9383998854205
11
4406.101432958833
21
1017.2286677429574
0
LINE
8
drawinglayer
10
4406.101432958833
20
1017.2286677429574
11
4969.126988190948
21
1238.9425078397987
0
LINE
8
drawinglayer
10
4969.126988190948
20
1238.9425078397987
11
3288.7359570577055
21
881.2141438128075
0
LINE
8
drawinglayer
10
3288.7359570577055
20
881.2141438128075
11
3284.3908995972506
21
941.7839354877318
0
LINE
8
drawinglayer
10
3284.3908995972506
20
941.7839354877318
11
3096.9929521862914
21
946.8457657445831
0
LINE
8
drawinglayer
10
3096.9929521862914
20
946.8457657445831
11
3102.8218844129397
21
1008.1679441482663
0
LINE
8
drawinglayer
10
3102.8218844129397
20
1008.1679441482663
11
2953.0908912405653
21
1016.8307384083143
0
LINE
8
drawinglayer
10
2953.0908912405653
20
1016.8307384083143
11
1845.791230378721
21
671.8130665274449
0
LINE
8
drawinglayer
10
1845.791230378721
20
671.8130665274449
11
1854.7909123433158
21
711.9875237591253
0
LINE
8
drawinglayer
10
1854.7909123433158
20
711.9875237591253
11
1641.3472185468556
21
663.1473219945183
0
LINE
8
drawinglayer
10
1641.3472185468556
20
663.1473219945183
11
1641.4902799190643
21
696.7712848784973
0
LINE
8
drawinglayer
10
1641.4902799190643
20
696.7712848784973
11
1656.486301070446
21
737.5152180571946
0
LINE
8
drawinglayer
10
1656.486301070446
20
737.5152180571946
11
1649.933326300221
21
769.3765454989432
0
LINE
8
drawinglayer
10
1649.933326300221
20
769.3765454989432
11
1645.467200262201
21
802.5479769841039
0
LINE
8
drawinglayer
10
1645.467200262201
20
802.5479769841039
11
1636.5562333029845
21
833.8670503966124
0
LINE
8
drawinglayer
10
1636.5562333029845
20
833.8670503966124
11
1633.0115729925851
21
868.2876553725048
0
LINE
8
drawinglayer
10
1633.0115729925851
20
868.2876553725048
11
1591.1519022133452
21
881.9899016331485
0
LINE
8
drawinglayer
10
1591.1519022133452
20
881.9899016331485
11
1566.6399554460497
21
904.4999999999999
0
LINE
8
drawinglayer
10
1566.6399554460497
20
904.4999999999999
11
1575.9020823408339
21
946.8975007221349
0
LINE
8
drawinglayer
10
1575.9020823408339
20
946.8975007221349
11
1609.3832744808572
21
1005.6542836985644
0
LINE
8
drawinglayer
10
1609.3832744808572
20
1005.6542836985644
11
1612.973169801037
21
1047.4770240926507
0
LINE
8
drawinglayer
10
1612.973169801037
20
1047.4770240926507
11
1594.0319926302068
21
1075.1881551483784
0
LINE
8
drawinglayer
10
1594.0319926302068
20
1075.1881551483784
11
1592.636362108872
21
1115.175986375521
0
LINE
8
drawinglayer
10
1592.636362108872
20
1115.175986375521
11
1573.1335455620856
21
1142.948423082714
0
LINE
8
drawinglayer
10
1573.1335455620856
20
1142.948423082714
11
1555.941632449639
21
1172.4861188559785
0
LINE
8
drawinglayer
10
1555.941632449639
20
1172.4861188559785
11
4618.137021512194
21
3608.084076146021
0
LINE
8
drawinglayer
10
4618.137021512194
20
3608.084076146021
11
4531.538101255599
21
3669.5672002116034
0
LINE
8
drawinglayer
10
4531.538101255599
20
3669.5672002116034
11
4466.805147826763
21
3748.0945520822115
0
LINE
8
drawinglayer
10
4466.805147826763
20
3748.0945520822115
11
4427.881107167005
21
3849.0983230873076
0
LINE
8
drawinglayer
10
4427.881107167005
20
3849.0983230873076
11
4429.514732258007
21
3988.352979201973
0
LINE
8
drawinglayer
10
4429.514732258007
20
3988.352979201973
11
4434.928846618648
21
4135.638055418989
0
LINE
8
drawinglayer
10
4434.928846618648
20
4135.638055418989
11
4327.008733987071
21
4178.543762903482
0
LINE
8
drawinglayer
10
4327.008733987071
20
4178.543762903482
11
2275.4696218583113
21
2275.469621858311
0
LINE
8
drawinglayer
10
2275.4696218583113
20
2275.469621858311
11
2177.927655981571
21
2255.3101090117557
0
LINE
8
drawinglayer
10
2177.927655981571
20
2255.3101090117557
11
2120.162401844292
21
2273.5958199085962
0
LINE
8
drawinglayer
10
2120.162401844292
20
2273.5958199085962
11
2026.7966066609806
21
2250.985676371026
0
LINE
8
drawinglayer
10
2026.7966066609806
20
2250.985676371026
11
1776.9358800207895
21
2044.1308980333781
0
LINE
8
drawinglayer
10
1776.9358800207895
20
2044.1308980333781
11
1708.0473758395565
21
2035.571596477904
0
LINE
8
drawinglayer
10
1708.0473758395565
20
2035.571596477904
11
1636.3903468273402
21
2020.7737862784886
0
LINE
8
drawinglayer
10
1636.3903468273402
20
2020.7737862784886
11
1548.3886104440305
21
1981.8470453209056
0
LINE
8
drawinglayer
10
1548.3886104440305
20
1981.8470453209056
11
1481.0667719771907
21
1965.4419902263874
0
LINE
8
drawinglayer
10
1481.0667719771907
20
1965.4419902263874
11
1439.1921902381207
21
1980.8781107270593
0
LINE
8
drawinglayer
10
1439.1921902381207
20
1980.8781107270593
11
1416.303615459821
21
2022.6911853605934
0
LINE
8
drawinglayer
10
1416.303615459821
20
2022.6911853605934
11
1378.1309106036558
21
2043.1630975619007
0
LINE
8
drawinglayer
10
1378.1309106036558
20
2043.1630975619007
11
1372.7626877553755
21
2113.8691665064403
0
LINE
8
drawinglayer
10
1372.7626877553755
20
2113.8691665064403
11
1350.8966843464978
21
2161.886609126769
0
LINE
8
drawinglayer
10
1350.8966843464978
20
2161.886609126769
11
1340.515349472144
21
2230.9921919024227
0
LINE
8
drawinglayer
10
1340.515349472144
20
2230.9921919024227
11
1379.5000000000002
21
2389.364089041266
0
LINE
8
drawinglayer
10
1379.5000000000002
20
2389.364089041266
11
1311.7736299815272
21
2366.502272592421
0
LINE
8
drawinglayer
10
1311.7736299815272
20
2366.502272592421
11
1279.0752728101595
21
2405.590716744146
0
LINE
8
drawinglayer
10
1279.0752728101595
20
2405.590716744146
11
1260.3911249019163
21
2473.656862777955
0
LINE
8
drawinglayer
10
1260.3911249019163
20
2473.656862777955
11
1257.0292634176797
21
2577.2919277628616
0
LINE
8
drawinglayer
10
1257.0292634176797
20
2577.2919277628616
11
1261.0928930342475
21
2704.422436517364
0
LINE
8
drawinglayer
10
1261.0928930342475
20
2704.422436517364
11
1252.3421240303894
21
2812.8064640815683
0
LINE
8
drawinglayer
10
1252.3421240303894
20
2812.8064640815683
11
1207.6522353782227
21
2845.05037580813
0
LINE
8
drawinglayer
10
1207.6522353782227
20
2845.05037580813
11
617.6326208944853
21
1528.6943802169908
0
LINE
8
drawinglayer
10
617.6326208944853
20
1528.6943802169908
11
588.5297651407693
21
1533.1724554150298
0
LINE
8
drawinglayer
10
588.5297651407693
20
1533.1724554150298
11
558.6899041224804
21
1534.9878960537822
0
LINE
8
drawinglayer
10
558.6899041224804
20
1534.9878960537822
11
525.7111774096941
21
1526.7761199489971
0
LINE
8
drawinglayer
10
525.7111774096941
20
1526.7761199489971
11
494.34993675132216
21
1521.452661943172
0
LINE
8
drawinglayer
10
494.34993675132216
20
1521.452661943172
11
465.60193977095844
21
1522.9153238711344
0
LINE
8
drawinglayer
10
465.60193977095844
20
1522.9153238711344
11
436.3339342583095
21
1521.6772646703582
0
LINE
8
drawinglayer
10
436.3339342583095
20
1521.6772646703582
11
404.9223960628936
21
1511.190955229247
0
LINE
8
drawinglayer
10
404.9223960628936
20
1511.190955229247
11
374.253172492686
21
1501.047488548967
0
LINE
8
drawinglayer
10
374.253172492686
20
1501.047488548967
11
347.8305677792016
21
1506.6197126741704
0
LINE
8
drawinglayer
10
347.8305677792016
20
1506.6197126741704
11
318.41675448739835
21
1498.033050523824
0
LINE
8
drawinglayer
10
318.41675448739835
20
1498.033050523824
11
289.8388639769716
21
1491.0916916570009
0
LINE
8
drawinglayer
10
289.8388639769716
20
1491.0916916570009
11
261.3405073887302
21
1482.1356682833725
0
LINE
8
drawinglayer
10
261.3405073887302
20
1482.1356682833725
11
235.785847431888
21
1488.6932513620209
0
LINE
8
drawinglayer
10
235.785847431888
20
1488.6932513620209
11
207.7506464581378
21
1478.2226596139797
0
LINE
8
drawinglayer
10
207.7506464581378
20
1478.2226596139797
11
181.4329849944133
21
1477.653083256018
0
LINE
8
drawinglayer
10
181.4329849944133
20
1477.653083256018
11
154.127219088155
21
1466.4225347205186
0
LINE
8
drawinglayer
10
154.127219088155
20
1466.4225347205186
11
128.70724310260445
21
1471.1305204069847
0
LINE
8
drawinglayer
10
128.70724310260445
20
1471.1305204069847
11
102.47225993012
21
1465.4215898316822
0
LINE
8
drawinglayer
10
102.47225993012
20
1465.4215898316822
11
76.30582420221226
21
1456.001861672168
0
LINE
8
drawinglayer
10
76.30582420221226
20
1456.001861672168
11
50.75259307961222
21
1453.3641101925207
0
LINE
8
drawinglayer
10
50.75259307961222
20
1453.3641101925207
11
25.253632114749358
21
1446.7796148912978
0
LINE
8
drawinglayer
10
25.253632114749358
20
1446.7796148912978
11
8.861850400330036e-14
21
1447.2500000000002
0
LINE
8
drawinglayer
10
8.861850400330036e-14
20
1447.2500000000002
11
-25.188185590609372
21
1443.0301860344612
0
LINE
8
drawinglayer
10
-25.188185590609372
20
1443.0301860344612
11
-50.264000125776676
21
1439.3726386142525
0
LINE
8
drawinglayer
10
-50.264000125776676
20
1439.3726386142525
11
-74.91892136177411
21
1429.5381790011725
0
LINE
8
drawinglayer
10
-74.91892136177411
20
1429.5381790011725
11
-100.03078334907573
21
1430.5068480725881
0
LINE
8
drawinglayer
10
-100.03078334907573
20
1430.5068480725881
11
-124.85060148602047
21
1427.048905016426
0
LINE
8
drawinglayer
10
-124.85060148602047
20
1427.048905016426
11
-149.6063630518288
21
1423.4094627458408
0
LINE
8
drawinglayer
10
-149.6063630518288
20
1423.4094627458408
11
-174.33409574106324
21
1419.8372699229108
0
LINE
8
drawinglayer
10
-174.33409574106324
20
1419.8372699229108
11
-199.46984695101338
21
1419.3017095238558
0
LINE
8
drawinglayer
10
-199.46984695101338
20
1419.3017095238558
11
-223.50574192623017
21
1411.1597166253034
0
LINE
8
drawinglayer
10
-223.50574192623017
20
1411.1597166253034
11
-248.6641904190441
21
1410.2447023134814
0
LINE
8
drawinglayer
10
-248.6641904190441
20
1410.2447023134814
11
-272.6183521442385
21
1402.4998383508503
0
LINE
8
drawinglayer
10
-272.6183521442385
20
1402.4998383508503
11
-297.83349709644006
21
1401.196438051177
0
LINE
8
drawinglayer
10
-297.83349709644006
20
1401.196438051177
11
-321.7362454753127
21
1393.5927851590832
0
LINE
8
drawinglayer
10
-321.7362454753127
20
1393.5927851590832
11
-346.9159982899233
21
1391.404071479779
0
LINE
8
drawinglayer
10
-346.9159982899233
20
1391.404071479779
11
-372.4406059025275
21
1389.9672640299693
0
LINE
8
drawinglayer
10
-372.4406059025275
20
1389.9672640299693
11
-397.6757951049754
21
1386.8603118150095
0
LINE
8
drawinglayer
10
-397.6757951049754
20
1386.8603118150095
11
-423.0618567337998
21
1383.772981878512
0
LINE
8
drawinglayer
10
-423.0618567337998
20
1383.772981878512
11
-448.3064045894547
21
1379.7452410151936
0
LINE
8
drawinglayer
10
-448.3064045894547
20
1379.7452410151936
11
-474.02723288961965
21
1376.675046072605
0
LINE
8
drawinglayer
10
-474.02723288961965
20
1376.675046072605
11
-499.09289414798224
21
1371.2464568818373
0
LINE
8
drawinglayer
10
-499.09289414798224
20
1371.2464568818373
11
-523.7547582604565
21
1364.4277933256608
0
LINE
8
drawinglayer
10
-523.7547582604565
20
1364.4277933256608
11
-548.7050077059571
21
1358.0925509767014
0
LINE
8
drawinglayer
10
-548.7050077059571
20
1358.0925509767014
11
-576.9145112144128
21
1359.1254161225288
0
LINE
8
drawinglayer
10
-576.9145112144128
20
1359.1254161225288
11
-601.4618109483396
21
1350.9053454889968
0
LINE
8
drawinglayer
10
-601.4618109483396
20
1350.9053454889968
11
-629.7012099936417
21
1350.398602684608
0
LINE
8
drawinglayer
10
-629.7012099936417
20
1350.398602684608
11
-657.2279418235245
21
1347.516973914026
0
LINE
8
drawinglayer
10
-657.2279418235245
20
1347.516973914026
11
-684.5041759823018
21
1343.4150868450124
0
LINE
8
drawinglayer
10
-684.5041759823018
20
1343.4150868450124
11
-707.9631166811228
21
1331.4849700312616
0
LINE
8
drawinglayer
10
-707.9631166811228
20
1331.4849700312616
11
-735.8198011288779
21
1327.454060510818
0
LINE
8
drawinglayer
10
-735.8198011288779
20
1327.454060510818
11
-768.4999999999994
21
1331.0810456166819
0
LINE
8
drawinglayer
10
-768.4999999999994
20
1331.0810456166819
11
-798.6952946667669
21
1329.252191563801
0
LINE
8
drawinglayer
10
-798.6952946667669
20
1329.252191563801
11
-822.3022182738752
21
1315.9586332107335
0
LINE
8
drawinglayer
10
-822.3022182738752
20
1315.9586332107335
11
-854.9471252148385
21
1316.5031240323287
0
LINE
8
drawinglayer
10
-854.9471252148385
20
1316.5031240323287
11
-883.3849892579124
21
1309.6721052438274
0
LINE
8
drawinglayer
10
-883.3849892579124
20
1309.6721052438274
11
-916.5751452889709
21
1309.004966773809
0
LINE
8
drawinglayer
10
-916.5751452889709
20
1309.004966773809
11
-945.3056319993693
21
1301.1015812035087
0
LINE
8
drawinglayer
10
-945.3056319993693
20
1301.1015812035087
11
-968.4708260074337
21
1285.2041945436056
0
LINE
8
drawinglayer
10
-968.4708260074337
20
1285.2041945436056
11
-1007.9917504769346
21
1290.1706063426063
0
LINE
8
drawinglayer
10
-1007.9917504769346
20
1290.1706063426063
11
-1040.738596698668
21
1285.2051337594653
0
LINE
8
drawinglayer
10
-1040.738596698668
20
1285.2051337594653
11
-1067.6702196893423
21
1272.399820020623
0
LINE
8
drawinglayer
10
-1067.6702196893423
20
1272.399820020623
11
-1097.2587259866232
21
1262.2517729225863
0
LINE
8
drawinglayer
10
-1097.2587259866232
20
1262.2517729225863
11
-1133.841812475085
21
1259.258906771445
0
LINE
8
drawinglayer
10
-1133.841812475085
20
1259.258906771445
11
-1176.4471711078102
21
1261.5851352930697
0
LINE
8
drawinglayer
10
-1176.4471711078102
20
1261.5851352930697
11
-1221.9040736373763
21
1265.3187087956871
0
LINE
8
drawinglayer
10
-1221.9040736373763
20
1265.3187087956871
11
-1247.1595853177735
21
1247.1595853177737
0
LINE
8
drawinglayer
10
-1247.1595853177735
20
1247.1595853177737
11
-1288.5174173566088
21
1244.3068060846795
0
LINE
8
drawinglayer
10
-1288.5174173566088
20
1244.3068060846795
11
-1333.9891517533672
21
1243.9650087539978
0
LINE
8
drawinglayer
10
-1333.9891517533672
20
1243.9650087539978
11
-1379.0910098796746
21
1241.7391227504509
0
LINE
8
drawinglayer
10
-1379.0910098796746
20
1241.7391227504509
11
-1405.080560979746
21
1221.417897223077
0
LINE
8
drawinglayer
10
-1405.080560979746
20
1221.417897223077
11
-1442.6531975038147
21
1210.5297659421751
0
LINE
8
drawinglayer
10
-1442.6531975038147
20
1210.5297659421751
11
-1495.4231163335764
21
1210.9697624776497
0
LINE
8
drawinglayer
10
-1495.4231163335764
20
1210.9697624776497
11
-1537.605982975117
21
1201.3094537291915
0
LINE
8
drawinglayer
10
-1537.605982975117
20
1201.3094537291915
11
-1530.3852961281245
21
1153.2280381151133
0
LINE
8
drawinglayer
10
-1530.3852961281245
20
1153.2280381151133
11
-6814.350143620181
21
4950.915180059502
0
LINE
8
drawinglayer
10
-6814.350143620181
20
4950.915180059502
11
-7069.783220137939
21
4591.170905417927
0
LINE
8
drawinglayer
10
-7069.783220137939
20
4591.170905417927
11
-2371.142476853367
21
1481.654262796041
0
LINE
8
drawinglayer
10
-2371.142476853367
20
1481.654262796041
11
-7150.918206107372
21
4296.7051399371285
0
LINE
8
drawinglayer
10
-7150.918206107372
20
4296.7051399371285
11
-7432.013508927107
21
4290.874999999999
0
LINE
8
drawinglayer
10
-7432.013508927107
20
4290.874999999999
11
-2408.7026734618953
21
1335.1656941584124
0
LINE
8
drawinglayer
10
-2408.7026734618953
20
1335.1656941584124
11
-2405.940366939639
21
1225.887846921711
0
LINE
8
drawinglayer
10
-2405.940366939639
20
1225.887846921711
11
-2375.2879658571233
21
1158.505348176835
0
LINE
8
drawinglayer
10
-2375.2879658571233
20
1158.505348176835
11
-2367.50251668649
21
1103.9845542321427
0
LINE
8
drawinglayer
10
-2367.50251668649
20
1103.9845542321427
11
-2502.162317897096
21
1062.1048900159683
0
LINE
8
drawinglayer
10
-2502.162317897096
20
1062.1048900159683
11
-2487.402485839048
21
1004.9758384865382
0
LINE
8
drawinglayer
10
-2487.402485839048
20
1004.9758384865382
11
-2607.4901312066836
21
1000.9216830800245
0
LINE
8
drawinglayer
10
-2607.4901312066836
20
1000.9216830800245
11
-2637.717186546045
21
960.0505423151527
0
LINE
8
drawinglayer
10
-2637.717186546045
20
960.0505423151527
11
-2752.640953213512
21
947.8102896633974
0
LINE
8
drawinglayer
10
-2752.640953213512
20
947.8102896633974
11
-2991.5482720064047
21
972.0129558063971
0
LINE
8
drawinglayer
10
-2991.5482720064047
20
972.0129558063971
11
-3126.6383996211443
21
955.9092885909888
0
LINE
8
drawinglayer
10
-3126.6383996211443
20
955.9092885909888
11
-3192.830723059126
21
915.5294773461628
0
LINE
8
drawinglayer
10
-3192.830723059126
20
915.5294773461628
11
-3314.0915099977915
21
888.0081437467493
0
LINE
8
drawinglayer
10
-3314.0915099977915
20
888.0081437467493
11
-3503.4952936510554
21
873.5194845365005
0
LINE
8
drawinglayer
10
-3503.4952936510554
20
873.5194845365005
11
-3713.811501928924
21
857.4009436316422
0
LINE
8
drawinglayer
10
-3713.811501928924
20
857.4009436316422
11
-3794.968153946983
21
806.6453824502019
0
LINE
8
drawinglayer
10
-3794.968153946983
20
806.6453824502019
11
-4006.265942445778
21
778.739212380524
0
LINE
8
drawinglayer
10
-4006.265942445778
20
778.739212380524
11
-4300.901659342565
21
758.3650039159029
0
LINE
8
drawinglayer
10
-4300.901659342565
20
758.3650039159029
11
-4572.009328614892
21
724.1351386712292
0
LINE
8
drawinglayer
10
-4572.009328614892
20
724.1351386712292
11
-5086.511935091075
21
714.8626330813754
0
LINE
8
drawinglayer
10
-5086.511935091075
20
714.8626330813754
11
-5068.188786818501
21
622.2953347625348
0
LINE
8
drawinglayer
10
-5068.188786818501
20
622.2953347625348
11
-5213.035145046645
21
547.9120723332238
0
LINE
8
drawinglayer
10
-5213.035145046645
20
547.9120723332238
11
-5612.062831699847
21
490.99187676893234
0
LINE
8
drawinglayer
10
-5612.062831699847
20
490.99187676893234
11
-5768.663511639996
21
403.3842485438417
0
LINE
8
drawinglayer
10
-5768.663511639996
20
403.3842485438417
11
-5740.122565769291
21
300.8270764844436
0
LINE
8
drawinglayer
10
-5740.122565769291
20
300.8270764844436
11
-5722.511875511343
21
199.83451811852154
0
LINE
8
drawinglayer
10
-5722.511875511343
20
199.83451811852154
11
-5759.622647948395
21
100.5345872819713
0
LINE
8
drawinglayer
10
-5759.622647948395
20
100.5345872819713
11
-5754.25
21
7.046923843993657e-13
0
LINE
8
drawinglayer
10
-5754.25
20
7.046923843993657e-13
11
-5737.625998654952
21
-100.15063434034961
0
LINE
8
drawinglayer
10
-5737.625998654952
20
-100.15063434034961
11
-5756.990859043504
21
-201.03855075475653
0
LINE
8
drawinglayer
10
-5756.990859043504
20
-201.03855075475653
11
-5668.470896650648
21
-297.0719716240083
0
LINE
8
drawinglayer
10
-5668.470896650648
20
-297.0719716240083
11
-5687.112650531256
21
-397.68165681525545
0
LINE
8
drawinglayer
10
-5687.112650531256
20
-397.68165681525545
11
-5588.154158945645
21
-488.9001389429871
0
LINE
8
drawinglayer
10
-5588.154158945645
20
-488.9001389429871
11
-5675.9850873405785
21
-596.5700719843155
0
LINE
8
drawinglayer
10
-5675.9850873405785
20
-596.5700719843155
11
-5698.7037296486515
21
-699.7128351606559
0
LINE
8
drawinglayer
10
-5698.7037296486515
20
-699.7128351606559
11
-5534.113102162263
21
-777.7688747153259
0
LINE
8
drawinglayer
10
-5534.113102162263
20
-777.7688747153259
11
-5570.315318871431
21
-882.2512742106417
0
LINE
8
drawinglayer
10
-5570.315318871431
20
-882.2512742106417
11
-5617.343423181632
21
-990.4892054121709
0
LINE
8
drawinglayer
10
-5617.343423181632
20
-990.4892054121709
11
-5599.201454385473
21
-1088.3745096278105
0
LINE
8
drawinglayer
10
-5599.201454385473
20
-1088.3745096278105
11
-5519.442374040685
21
-1173.1936933619106
0
LINE
8
drawinglayer
10
-5519.442374040685
20
-1173.1936933619106
11
-5459.882658024064
21
-1260.513233015847
0
LINE
8
drawinglayer
10
-5459.882658024064
20
-1260.513233015847
11
-5543.7846320779045
21
-1382.2207505087
0
LINE
8
drawinglayer
10
-5543.7846320779045
20
-1382.2207505087
11
-6156.5697353099495
21
-1649.647888722189
0
LINE
8
drawinglayer
10
-6156.5697353099495
20
-1649.647888722189
11
-5456.361701569882
21
-1564.5865409562377
0
LINE
8
drawinglayer
10
-5456.361701569882
20
-1564.5865409562377
11
-5496.839737275529
21
-1680.5525587462912
0
LINE
8
drawinglayer
10
-5496.839737275529
20
-1680.5525587462912
11
-5439.805509079205
21
-1767.4999535761076
0
LINE
8
drawinglayer
10
-5439.805509079205
20
-1767.4999535761076
11
-5519.464685061013
21
-1900.5041016436533
0
LINE
8
drawinglayer
10
-5519.464685061013
20
-1900.5041016436533
11
-5410.280264174865
21
-1969.1809751975363
0
LINE
8
drawinglayer
10
-5410.280264174865
20
-1969.1809751975363
11
-5416.633634536762
21
-2079.250843261832
0
LINE
8
drawinglayer
10
-5416.633634536762
20
-2079.250843261832
11
-5364.685782523433
21
-2167.4737495044674
0
LINE
8
drawinglayer
10
-5364.685782523433
20
-2167.4737495044674
11
-5492.882586764077
21
-2331.590326477619
0
LINE
8
drawinglayer
10
-5492.882586764077
20
-2331.590326477619
11
-5396.0846319304355
21
-2402.4916664879815
0
LINE
8
drawinglayer
10
-5396.0846319304355
20
-2402.4916664879815
11
-5362.396598949102
21
-2500.5266001542836
0
LINE
8
drawinglayer
10
-5362.396598949102
20
-2500.5266001542836
11
-5299.963792514613
21
-2584.9650598284893
0
LINE
8
drawinglayer
10
-5299.963792514613
20
-2584.9650598284893
11
-5387.470948504966
21
-2745.0535566751655
0
LINE
8
drawinglayer
10
-5387.470948504966
20
-2745.0535566751655
11
-5338.742620221501
21
-2838.659804384886
0
LINE
8
drawinglayer
10
-5338.742620221501
20
-2838.659804384886
11
-5306.7550730682815
21
-2941.582370844651
0
LINE
8
drawinglayer
10
-5306.7550730682815
20
-2941.582370844651
11
-5245.515870722345
21
-3028.500000000001
0
LINE
8
drawinglayer
10
-5245.515870722345
20
-3028.500000000001
11
-5191.862340352695
21
-3119.5856197301987
0
LINE
8
drawinglayer
10
-5191.862340352695
20
-3119.5856197301987
11
-5205.743238256219
21
-3252.909403495526
0
LINE
8
drawinglayer
10
-5205.743238256219
20
-3252.909403495526
11
-5109.390767565512
21
-3318.0771610703005
0
LINE
8
drawinglayer
10
-5109.390767565512
20
-3318.0771610703005
11
-4930.286443984835
21
-3325.5201969405316
0
LINE
8
drawinglayer
10
-4930.286443984835
20
-3325.5201969405316
11
-4744.938216543987
21
-3322.441507563434
0
LINE
8
drawinglayer
10
-4744.938216543987
20
-3322.441507563434
11
-4480.538369097055
21
-3255.30167350879
0
LINE
8
drawinglayer
10
-4480.538369097055
20
-3255.30167350879
11
-4353.96114190033
21
-3280.9450524691783
0
LINE
8
drawinglayer
10
-4353.96114190033
20
-3280.9450524691783
11
-4159.711765601486
21
-3249.923012875317
0
LINE
8
drawinglayer
10
-4159.711765601486
20
-3249.923012875317
11
-3937.604300212108
21
-3188.6090913517623
0
LINE
8
drawinglayer
10
-3937.604300212108
20
-3188.6090913517623
11
-3728.7213268816267
21
-3128.768690149231
0
LINE
8
drawinglayer
10
-3728.7213268816267
20
-3128.768690149231
11
-3661.8508832408907
21
-3183.198408661943
0
LINE
8
drawinglayer
10
-3661.8508832408907
20
-3183.198408661943
11
-3493.523824569229
21
-3145.5829804929913
0
LINE
8
drawinglayer
10
-3493.523824569229
20
-3145.5829804929913
11
-3294.5655873689593
21
-3072.23211249154
0
LINE
8
drawinglayer
10
-3294.5655873689593
20
-3072.23211249154
11
-3150.708325483292
21
-3042.6036626104083
0
LINE
8
drawinglayer
10
-3150.708325483292
20
-3042.6036626104083
11
-3115.1589245173373
21
-3115.1589245173363
0
LINE
8
drawinglayer
10
-3115.1589245173373
20
-3115.1589245173363
11
-1841.713004679417
21
-1907.1496456478478
0
LINE
8
drawinglayer
10
-1841.713004679417
20
-1907.1496456478478
11
-1797.9181767147613
21
-1928.0311958935374
0
LINE
8
drawinglayer
10
-1797.9181767147613
20
-1928.0311958935374
11
-1767.8430620001047
21
-1963.3886289112756
0
LINE
8
drawinglayer
10
-1767.8430620001047
20
-1963.3886289112756
11
-1653.92481208507
21
-1902.6228517416077
0
LINE
8
drawinglayer
10
-1653.92481208507
20
-1902.6228517416077
11
-1563.9022543673505
21
-1863.7861301084733
0
LINE
8
drawinglayer
10
-1563.9022543673505
20
-1863.7861301084733
11
-1500.1424821650492
21
-1852.5216856230545
0
LINE
8
drawinglayer
10
-1500.1424821650492
20
-1852.5216856230545
11
-1463.4273268490892
21
-1873.1015613231784
0
LINE
8
drawinglayer
10
-1463.4273268490892
20
-1873.1015613231784
11
-1440.745165426003
21
-1911.9334110532184
0
LINE
8
drawinglayer
10
-1440.745165426003
20
-1911.9334110532184
11
-1592.8980337126027
21
-2192.4360547561078
0
LINE
8
drawinglayer
10
-1592.8980337126027
20
-2192.4360547561078
11
-1695.9221281809564
21
-2422.0278069514757
0
LINE
8
drawinglayer
10
-1695.9221281809564
20
-2422.0278069514757
11
-1657.4477658872943
21
-2457.267365053142
0
LINE
8
drawinglayer
10
-1657.4477658872943
20
-2457.267365053142
11
-1848.368725082247
21
-2846.2382399647818
0
LINE
8
drawinglayer
10
-1848.368725082247
20
-2846.2382399647818
11
-1765.1610691608068
21
-2824.8482082970563
0
LINE
8
drawinglayer
10
-1765.1610691608068
20
-2824.8482082970563
11
-1678.2515670944122
21
-2793.0796493378316
0
LINE
8
drawinglayer
10
-1678.2515670944122
20
-2793.0796493378316
11
-1391.7500000000018
21
-2410.581711433985
0
LINE
8
drawinglayer
10
-1391.7500000000018
20
-2410.581711433985
11
-1338.3169566900149
21
-2414.387701558301
0
LINE
8
drawinglayer
10
-1338.3169566900149
20
-2414.387701558301
11
-1276.7279149962292
21
-2401.1759787798505
0
LINE
8
drawinglayer
10
-1276.7279149962292
20
-2401.1759787798505
11
-1064.1527830630807
21
-2282.083007758285
0
LINE
8
drawinglayer
10
-1064.1527830630807
20
-2282.083007758285
11
-1037.17843984329
21
-2329.540916988632
0
LINE
8
drawinglayer
10
-1037.17843984329
20
-2329.540916988632
11
-983.6656159717465
21
-2317.3709685665176
0
LINE
8
drawinglayer
10
-983.6656159717465
20
-2317.3709685665176
11
-942.7911439794976
21
-2333.489965980963
0
LINE
8
drawinglayer
10
-942.7911439794976
20
-2333.489965980963
11
-1180.3744338148347
21
-3074.980529775159
0
LINE
8
drawinglayer
10
-1180.3744338148347
20
-3074.980529775159
11
-925.8344392375392
21
-2688.818449360557
0
LINE
8
drawinglayer
10
-925.8344392375392
20
-2688.818449360557
11
-827.6312031438883
21
-2707.0596879423633
0
LINE
8
drawinglayer
10
-827.6312031438883
20
-2707.0596879423633
11
-759.7254619706034
21
-2649.4775494299925
0
LINE
8
drawinglayer
10
-759.7254619706034
20
-2649.4775494299925
11
-711.1700311804507
21
-2654.122689185786
0
LINE
8
drawinglayer
10
-711.1700311804507
20
-2654.122689185786
11
-662.6845525213897
21
-2657.8825682015226
0
LINE
8
drawinglayer
10
-662.6845525213897
20
-2657.8825682015226
11
-606.0743781659587
21
-2625.1965470476184
0
LINE
8
drawinglayer
10
-606.0743781659587
20
-2625.1965470476184
11
-555.9558612466897
21
-2615.566684362196
0
LINE
8
drawinglayer
10
-555.9558612466897
20
-2615.566684362196
11
-517.6171022077214
21
-2662.9091418976504
0
LINE
8
drawinglayer
10
-517.6171022077214
20
-2662.9091418976504
11
-467.72136654587683
21
-2652.5796827383824
0
LINE
8
drawinglayer
10
-467.72136654587683
20
-2652.5796827383824
11
-419.4399093891193
21
-2648.2393632207118
0
LINE
8
drawinglayer
10
-419.4399093891193
20
-2648.2393632207118
11
-371.3834199119358
21
-2642.530341436881
0
LINE
8
drawinglayer
10
-371.3834199119358
20
-2642.530341436881
11
-322.71002133683214
21
-2628.2622095462216
0
LINE
8
drawinglayer
10
-322.71002133683214
20
-2628.2622095462216
11
-276.2425963005932
21
-2628.272738984504
0
LINE
8
drawinglayer
10
-276.2425963005932
20
-2628.272738984504
11
-229.30675916908885
21
-2620.9882506793824
0
LINE
8
drawinglayer
10
-229.30675916908885
20
-2620.9882506793824
11
-198.26533749924093
21
-2835.3264218509853
0
LINE
8
drawinglayer
10
-198.26533749924093
20
-2835.3264218509853
11
-203.65228973035363
21
-3885.917177113736
0
LINE
8
drawinglayer
10
-203.65228973035363
20
-3885.917177113736
11
-135.20937509966365
21
-3871.889911578734
0
LINE
8
drawinglayer
10
-135.20937509966365
20
-3871.889911578734
11
-67.5146343026312
21
-3867.9108087124982
0
LINE
8
drawinglayer
10
-67.5146343026312
20
-3867.9108087124982
11
-7.311600633459377e-13
21
-3980.249999999999
0
LINE
8
drawinglayer
10
-7.311600633459377e-13
20
-3980.249999999999
11
68.64031451783453
21
-3932.4009850500856
0
LINE
8
drawinglayer
10
68.64031451783453
20
-3932.4009850500856
11
136.70132858369408
21
-3914.613869433799
0
LINE
8
drawinglayer
10
136.70132858369408
20
-3914.613869433799
11
204.85601672393986
21
-3908.885656413091
0
LINE
8
drawinglayer
10
204.85601672393986
20
-3908.885656413091
11
271.24804815403087
21
-3879.0278094353257
0
LINE
8
drawinglayer
10
271.24804815403087
20
-3879.0278094353257
11
336.1814887134033
21
-3842.5719992143845
0
LINE
8
drawinglayer
10
336.1814887134033
20
-3842.5719992143845
11
404.2376995718344
21
-3846.0647998629543
0
LINE
8
drawinglayer
10
404.2376995718344
20
-3846.0647998629543
11
473.706137815809
21
-3858.026891429818
0
LINE
8
drawinglayer
10
473.706137815809
20
-3858.026891429818
11
538.0084150363731
21
-3828.1287867377255
0
LINE
8
drawinglayer
10
538.0084150363731
20
-3828.1287867377255
11
603.2112971951295
21
-3808.526241334852
0
LINE
8
drawinglayer
10
603.2112971951295
20
-3808.526241334852
11
668.1113635735127
21
-3789.0478297144687
0
LINE
8
drawinglayer
10
668.1113635735127
20
-3789.0478297144687
11
735.7594861719547
21
-3785.1544193741934
0
LINE
8
drawinglayer
10
735.7594861719547
20
-3785.1544193741934
11
803.7346187787535
21
-3781.274087536709
0
LINE
8
drawinglayer
10
803.7346187787535
20
-3781.274087536709
11
875.9594056150099
21
-3794.1970322737056
0
LINE
8
drawinglayer
10
875.9594056150099
20
-3794.1970322737056
11
935.8748531273133
21
-3753.5890170986913
0
LINE
8
drawinglayer
10
935.8748531273133
20
-3753.5890170986913
11
1004.1531902365032
21
-3747.5507245450135
0
LINE
8
drawinglayer
10
1004.1531902365032
20
-3747.5507245450135
11
1074.5722316525685
21
-3747.4787216155364
0
LINE
8
drawinglayer
10
1074.5722316525685
20
-3747.4787216155364
11
1141.0536706066603
21
-3732.2183863347354
0
LINE
8
drawinglayer
10
1141.0536706066603
20
-3732.2183863347354
11
1176.1959348396429
21
-3619.9588651484287
0
LINE
8
drawinglayer
10
1176.1959348396429
20
-3619.9588651484287
11
1247.1702076867516
21
-3622.045283477084
0
LINE
8
drawinglayer
10
1247.1702076867516
20
-3622.045283477084
11
1306.003917289067
21
-3588.2162724709906
0
LINE
8
drawinglayer
10
1306.003917289067
20
-3588.2162724709906
11
968.9373435831059
21
-2524.168078141809
0
LINE
8
drawinglayer
10
968.9373435831059
20
-2524.168078141809
11
1012.0933637614396
21
-2505.018979075817
0
LINE
8
drawinglayer
10
1012.0933637614396
20
-2505.018979075817
11
1051.9458806752468
21
-2478.229191707334
0
LINE
8
drawinglayer
10
1051.9458806752468
20
-2478.229191707334
11
1103.8832493077202
21
-2479.3623720420187
0
LINE
8
drawinglayer
10
1103.8832493077202
20
-2479.3623720420187
11
1156.706182384293
21
-2480.5644131193126
0
LINE
8
drawinglayer
10
1156.706182384293
20
-2480.5644131193126
11
1202.6712412158336
21
-2465.841466021764
0
LINE
8
drawinglayer
10
1202.6712412158336
20
-2465.841466021764
11
1247.6793909092087
21
-2448.7086801006812
0
LINE
8
drawinglayer
10
1247.6793909092087
20
-2448.7086801006812
11
1299.0278142285595
21
-2443.1159894406524
0
LINE
8
drawinglayer
10
1299.0278142285595
20
-2443.1159894406524
11
1492.3652135232871
21
-2692.2981135018435
0
LINE
8
drawinglayer
10
1492.3652135232871
20
-2692.2981135018435
11
1554.3750000000005
21
-2692.2564740148737
0
LINE
8
drawinglayer
10
1554.3750000000005
20
-2692.2564740148737
11
1603.4422867137264
21
-2668.5760989108517
0
LINE
8
drawinglayer
10
1603.4422867137264
20
-2668.5760989108517
11
1668.8482428864204
21
-2670.715466820626
0
LINE
8
drawinglayer
10
1668.8482428864204
20
-2670.715466820626
11
1730.5905337602476
21
-2664.8757296465865
0
LINE
8
drawinglayer
10
1730.5905337602476
20
-2664.8757296465865
11
1781.169195780196
21
-2640.6919279809454
0
LINE
8
drawinglayer
10
1781.169195780196
20
-2640.6919279809454
11
1841.3237547959461
21
-2629.6828501787368
0
LINE
8
drawinglayer
10
1841.3237547959461
20
-2629.6828501787368
11
1911.1837478289756
21
-2630.518757210142
0
LINE
8
drawinglayer
10
1911.1837478289756
20
-2630.518757210142
11
1956.8015477788838
21
-2596.7633609187733
0
LINE
8
drawinglayer
10
1956.8015477788838
20
-2596.7633609187733
11
2027.8349843538863
21
-2595.510419692143
0
LINE
8
drawinglayer
10
2027.8349843538863
20
-2595.510419692143
11
2112.7858828520643
21
-2609.0732791014166
0
LINE
8
drawinglayer
10
2112.7858828520643
20
-2609.0732791014166
11
2261.005417072401
21
-2694.561328671005
0
LINE
8
drawinglayer
10
2261.005417072401
20
-2694.561328671005
11
2741.9987116658244
21
-3154.3086905410764
0
LINE
8
drawinglayer
10
2741.9987116658244
20
-3154.3086905410764
11
2865.5518217318113
21
-3182.5177151069397
0
LINE
8
drawinglayer
10
2865.5518217318113
20
-3182.5177151069397
11
3249.6118570071885
21
-3365.07158598421
0
LINE
8
drawinglayer
10
3249.6118570071885
20
-3365.07158598421
11
3352.393249605421
21
-3352.3932496054226
0
LINE
8
drawinglayer
10
3352.393249605421
20
-3352.3932496054226
11
3507.86053635143
21
-3387.5015435433006
0
LINE
8
drawinglayer
10
3507.86053635143
20
-3387.5015435433006
11
3667.977072350046
21
-3302.6613903357375
0
LINE
8
drawinglayer
10
3667.977072350046
20
-3302.6613903357375
11
3792.792995409539
21
-3297.0246501917936
0
LINE
8
drawinglayer
10
3792.792995409539
20
-3297.0246501917936
11
1059.630975944326
21
-889.1359610989059
0
LINE
8
drawinglayer
10
1059.630975944326
20
-889.1359610989059
11
1991.8425150065323
21
-1196.8197265722386
0
LINE
8
drawinglayer
10
1991.8425150065323
20
-1196.8197265722386
11
1937.731840967681
21
-1118.750000000001
0
LINE
8
drawinglayer
10
1937.731840967681
20
-1118.750000000001
11
1944.9355737512305
21
-1078.0953930227934
0
LINE
8
drawinglayer
10
1944.9355737512305
20
-1078.0953930227934
11
1944.8444906721593
21
-990.947763306496
0
LINE
8
drawinglayer
10
1944.8444906721593
20
-990.947763306496
11
1932.4071995432082
21
-942.497965596517
0
LINE
8
drawinglayer
10
1932.4071995432082
20
-942.497965596517
11
1917.294123476033
21
-894.0489327124492
0
LINE
8
drawinglayer
10
1917.294123476033
20
-894.0489327124492
11
1900.8597109898428
21
-846.3172700799715
0
LINE
8
drawinglayer
10
1900.8597109898428
20
-846.3172700799715
11
1918.1019883815231
21
-814.1859889895248
0
LINE
8
drawinglayer
10
1918.1019883815231
20
-814.1859889895248
11
1897.4817583709312
21
-766.632393425665
0
LINE
8
drawinglayer
10
1897.4817583709312
20
-766.632393425665
11
1886.0658566309712
21
-723.9928500688937
0
LINE
8
drawinglayer
10
1886.0658566309712
20
-723.9928500688937
11
1877.5058563302443
21
-683.3562463646875
0
LINE
8
drawinglayer
10
1877.5058563302443
20
-683.3562463646875
11
1877.090752208544
21
-646.3341786360704
0
LINE
8
drawinglayer
10
1877.090752208544
20
-646.3341786360704
11
1863.119715422206
21
-605.3642919805225
0
LINE
8
drawinglayer
10
1863.119715422206
20
-605.3642919805225
11
1835.3879028820545
21
-561.134394289113
0
LINE
8
drawinglayer
10
1835.3879028820545
20
-561.134394289113
11
1905.4609967737326
21
-546.3821485682462
0
LINE
8
drawinglayer
10
1905.4609967737326
20
-546.3821485682462
11
1922.6753572283908
21
-515.1793092765674
0
LINE
8
drawinglayer
10
1922.6753572283908
20
-515.1793092765674
11
2014.0913538173993
21
-502.16937479101045
0
LINE
8
drawinglayer
10
2014.0913538173993
20
-502.16937479101045
11
2128.0242214909536
21
-491.2931026870019
0
LINE
8
drawinglayer
10
2128.0242214909536
20
-491.2931026870019
11
2158.5272179193253
21
-458.8091237120916
0
LINE
8
drawinglayer
10
2158.5272179193253
20
-458.8091237120916
11
2166.2057870731323
21
-421.0677505471899
0
LINE
8
drawinglayer
10
2166.2057870731323
20
-421.0677505471899
11
2153.282151961193
21
-379.68174046874327
0
LINE
8
drawinglayer
10
2153.282151961193
20
-379.68174046874327
11
2158.5928683706734
21
-341.88752334542505
0
LINE
8
drawinglayer
10
2158.5928683706734
20
-341.88752334542505
11
2150.6146782895057
21
-302.24918201002316
0
LINE
8
drawinglayer
10
2150.6146782895057
20
-302.24918201002316
11
2150.3512375309238
21
-264.02993248725335
0
LINE
8
drawinglayer
10
2150.3512375309238
20
-264.02993248725335
11
2129.271377983472
21
-223.79543985604778
0
LINE
8
drawinglayer
10
2129.271377983472
20
-223.79543985604778
11
2125.3813883787393
21
-185.94677715212902
0
LINE
8
drawinglayer
10
2125.3813883787393
20
-185.94677715212902
11
2135.784631606283
21
-149.3486102861729
0
LINE
8
drawinglayer
10
2135.784631606283
20
-149.3486102861729
11
2109.714035837311
21
-73.67283753897922
0
LINE
8
drawinglayer
10
2109.714035837311
20
-73.67283753897922
11
3233.0075222881915
21
56.43235621495624
0
ENDSEC
0
EOF
