0
SECTION
2
HEADER
9
$ACADVER
1
AC1006
9
$INSBASE
10
0.0
20
0.0
30
0.0
9
$EXTMIN
10
0.0
20
0.0
9
$EXTMAX
10
0.0
20
0.0
0
ENDSEC
0
SECTION
2
TABLES
0
TABLE
2
LTYPE
70
1
0
LTYPE
2
CONTINUOUS
70
64
3
Solid line
72
65
73
0
40
0.0
0
ENDTAB
0
TABLE
2
LAYER
70
1
0
LAYER
2
PYDXF
70
64
62
7
6
continuous
0
ENDTAB
0
TABLE
2
STYLE
70
1
0
STYLE
2
STANDARD
70
0
40
0
41
40
50
50
71
0
42
1
3
ARIAL.TTF
4

0
ENDTAB
0
TABLE
2
VIEW
70
0
0
ENDTAB
0
ENDSEC
0
SECTION
2
BLOCKS
0
ENDSEC
0
SECTION
2
ENTITIES
0
LINE
8
drawinglayer
10
5200.249999999999
20
-1.2736939034532044e-12
11
5183.960337462097
21
-90.48636427570591
0
LINE
8
drawinglayer
10
5183.960337462097
20
-90.48636427570591
11
5215.071183092396
21
-182.1142986678249
0
LINE
8
drawinglayer
10
5215.071183092396
20
-182.1142986678249
11
5047.572983416995
21
-264.5320908299579
0
LINE
8
drawinglayer
10
5047.572983416995
20
-264.5320908299579
11
5166.882998320761
21
-361.3036557576988
0
LINE
8
drawinglayer
10
5166.882998320761
20
-361.3036557576988
11
4091.1225763882762
21
-357.9268465289458
0
LINE
8
drawinglayer
10
4091.1225763882762
20
-357.9268465289458
11
3472.87045862601
21
-365.0133937306488
0
LINE
8
drawinglayer
10
3472.87045862601
20
-365.0133937306488
11
3474.1596672825376
21
-426.57316925386976
0
LINE
8
drawinglayer
10
3474.1596672825376
20
-426.57316925386976
11
3378.051949494682
21
-474.7542406500248
0
LINE
8
drawinglayer
10
3378.051949494682
20
-474.7542406500248
11
3312.7066943560917
21
-524.681195744935
0
LINE
8
drawinglayer
10
3312.7066943560917
20
-524.681195744935
11
3170.096156946298
21
-558.9734839098489
0
LINE
8
drawinglayer
10
3170.096156946298
20
-558.9734839098489
11
2131.1126152648785
21
-414.24632896247846
0
LINE
8
drawinglayer
10
2131.1126152648785
20
-414.24632896247846
11
2020.3638693156754
21
-429.441597384083
0
LINE
8
drawinglayer
10
2020.3638693156754
20
-429.441597384083
11
1888.8163705861782
21
-436.06761884558296
0
LINE
8
drawinglayer
10
1888.8163705861782
20
-436.06761884558296
11
1818.3341910412173
21
-453.36163235377757
0
LINE
8
drawinglayer
10
1818.3341910412173
20
-453.36163235377757
11
1830.6709222743568
21
-490.52679523055235
0
LINE
8
drawinglayer
10
1830.6709222743568
20
-490.52679523055235
11
1832.6454233064055
21
-525.5026188651086
0
LINE
8
drawinglayer
10
1832.6454233064055
20
-525.5026188651086
11
1832.0408362361848
21
-560.1110933225837
0
LINE
8
drawinglayer
10
1832.0408362361848
20
-560.1110933225837
11
1828.4061525774325
21
-594.0851716858367
0
LINE
8
drawinglayer
10
1828.4061525774325
20
-594.0851716858367
11
1830.996721648077
21
-630.462731106284
0
LINE
8
drawinglayer
10
1830.996721648077
20
-630.462731106284
11
1838.7435357228258
21
-669.2479154525037
0
LINE
8
drawinglayer
10
1838.7435357228258
20
-669.2479154525037
11
1785.4725656758985
21
-685.378703505388
0
LINE
8
drawinglayer
10
1785.4725656758985
20
-685.378703505388
11
1783.4381442592155
21
-720.5557824355074
0
LINE
8
drawinglayer
10
1783.4381442592155
20
-720.5557824355074
11
1825.3611243961889
21
-774.81982779423
0
LINE
8
drawinglayer
10
1825.3611243961889
20
-774.81982779423
11
1835.5412107683967
21
-817.2356001000518
0
LINE
8
drawinglayer
10
1835.5412107683967
20
-817.2356001000518
11
1838.8984998973622
21
-857.4924530718783
0
LINE
8
drawinglayer
10
1838.8984998973622
20
-857.4924530718783
11
1827.0235976146314
21
-891.0989486354979
0
LINE
8
drawinglayer
10
1827.0235976146314
20
-891.0989486354979
11
1816.985054451129
21
-925.8001265938711
0
LINE
8
drawinglayer
10
1816.985054451129
20
-925.8001265938711
11
1812.6914081393768
21
-963.8251183994338
0
LINE
8
drawinglayer
10
1812.6914081393768
20
-963.8251183994338
11
5186.4948633366175
21
-2874.9210480607835
0
LINE
8
drawinglayer
10
5186.4948633366175
20
-2874.9210480607835
11
5141.376315917266
21
-2968.3750000000036
0
LINE
8
drawinglayer
10
5141.376315917266
20
-2968.3750000000036
11
5083.002093163527
21
-3054.1757842166244
0
LINE
8
drawinglayer
10
5083.002093163527
20
-3054.1757842166244
11
5034.649534856663
21
-3145.998191936481
0
LINE
8
drawinglayer
10
5034.649534856663
20
-3145.998191936481
11
5091.569017996669
21
-3306.503581576228
0
LINE
8
drawinglayer
10
5091.569017996669
20
-3306.503581576228
11
5174.0234903160135
21
-3489.9229105609343
0
LINE
8
drawinglayer
10
5174.0234903160135
20
-3489.9229105609343
11
2751.9412927888657
21
-1926.9300379213396
0
LINE
8
drawinglayer
10
2751.9412927888657
20
-1926.9300379213396
11
2678.8575226240446
21
-1946.3039166534527
0
LINE
8
drawinglayer
10
2678.8575226240446
20
-1946.3039166534527
11
2557.630220926455
21
-1927.3126116444344
0
LINE
8
drawinglayer
10
2557.630220926455
20
-1927.3126116444344
11
2510.0112529258104
21
-1961.035714281052
0
LINE
8
drawinglayer
10
2510.0112529258104
20
-1961.035714281052
11
2418.866805034822
21
-1958.7597171426175
0
LINE
8
drawinglayer
10
2418.866805034822
20
-1958.7597171426175
11
2119.070440777872
21
-1778.11122529539
0
LINE
8
drawinglayer
10
2119.070440777872
20
-1778.11122529539
11
2021.4896106266945
21
-1757.254109151074
0
LINE
8
drawinglayer
10
2021.4896106266945
20
-1757.254109151074
11
1977.1368081826056
21
-1780.2219782177435
0
LINE
8
drawinglayer
10
1977.1368081826056
20
-1780.2219782177435
11
1914.3183139881776
21
-1785.1307074635909
0
LINE
8
drawinglayer
10
1914.3183139881776
20
-1785.1307074635909
11
1849.6024616207558
21
-1786.1403350426972
0
LINE
8
drawinglayer
10
1849.6024616207558
20
-1786.1403350426972
11
1811.4307967046386
21
-1811.4307967046395
0
LINE
8
drawinglayer
10
1811.4307967046386
20
-1811.4307967046395
11
1739.0772304441
21
-1800.8671901478135
0
LINE
8
drawinglayer
10
1739.0772304441
20
-1800.8671901478135
11
1760.5787665013395
21
-1887.9895807298876
0
LINE
8
drawinglayer
10
1760.5787665013395
20
-1887.9895807298876
11
1763.4937130587714
21
-1958.558187545672
0
LINE
8
drawinglayer
10
1763.4937130587714
20
-1958.558187545672
11
1781.0362489519794
21
-2048.847832909771
0
LINE
8
drawinglayer
10
1781.0362489519794
20
-2048.847832909771
11
1779.3968005147628
21
-2120.602529664112
0
LINE
8
drawinglayer
10
1779.3968005147628
20
-2120.602529664112
11
1749.0386968252587
21
-2159.8829133792874
0
LINE
8
drawinglayer
10
1749.0386968252587
20
-2159.8829133792874
11
1726.3147768131448
21
-2209.5821531132497
0
LINE
8
drawinglayer
10
1726.3147768131448
20
-2209.5821531132497
11
1742.1040382693914
21
-2311.8501427094025
0
LINE
8
drawinglayer
10
1742.1040382693914
20
-2311.8501427094025
11
1767.323307330392
21
-2432.5118478368727
0
LINE
8
drawinglayer
10
1767.323307330392
20
-2432.5118478368727
11
1753.4231659251484
21
-2504.1477993914486
0
LINE
8
drawinglayer
10
1753.4231659251484
20
-2504.1477993914486
11
1737.8317457612145
21
-2576.4415161079314
0
LINE
8
drawinglayer
10
1737.8317457612145
20
-2576.4415161079314
11
1728.5481373789403
21
-2661.7307150167894
0
LINE
8
drawinglayer
10
1728.5481373789403
20
-2661.7307150167894
11
885.7367293265656
21
-1474.1134653824577
0
LINE
8
drawinglayer
10
885.7367293265656
20
-1474.1134653824577
11
847.5000000000001
21
-1467.9130594146231
0
LINE
8
drawinglayer
10
847.5000000000001
20
-1467.9130594146231
11
816.5406028998932
21
-1473.0782417495266
0
LINE
8
drawinglayer
10
816.5406028998932
20
-1473.0782417495266
11
785.6606603221877
21
-1477.6127966494148
0
LINE
8
drawinglayer
10
785.6606603221877
20
-1477.6127966494148
11
754.6457081920613
21
-1481.0755948321143
0
LINE
8
drawinglayer
10
754.6457081920613
20
-1481.0755948321143
11
720.2437941744543
21
-1476.7186180695317
0
LINE
8
drawinglayer
10
720.2437941744543
20
-1476.7186180695317
11
689.7130031608208
21
-1479.0943084438138
0
LINE
8
drawinglayer
10
689.7130031608208
20
-1479.0943084438138
11
659.2184142651026
21
-1480.6288004742462
0
LINE
8
drawinglayer
10
659.2184142651026
20
-1480.6288004742462
11
629.6632135604642
21
-1483.393571338608
0
LINE
8
drawinglayer
10
629.6632135604642
20
-1483.393571338608
11
599.6515044105213
21
-1484.1895551977857
0
LINE
8
drawinglayer
10
599.6515044105213
20
-1484.1895551977857
11
568.1923840040738
21
-1480.1917662113133
0
LINE
8
drawinglayer
10
568.1923840040738
20
-1480.1917662113133
11
538.16869552294
21
-1478.6063388066264
0
LINE
8
drawinglayer
10
538.16869552294
20
-1478.6063388066264
11
512.2000989997214
21
-1487.5370990616261
0
LINE
8
drawinglayer
10
512.2000989997214
20
-1487.5370990616261
11
478.12654454663686
21
-1471.522194837676
0
LINE
8
drawinglayer
10
478.12654454663686
20
-1471.522194837676
11
446.013035554535
21
-1458.842905221611
0
LINE
8
drawinglayer
10
446.013035554535
20
-1458.842905221611
11
418.48641546915815
21
-1459.4355698583536
0
LINE
8
drawinglayer
10
418.48641546915815
20
-1459.4355698583536
11
390.6226438209789
21
-1457.823553326777
0
LINE
8
drawinglayer
10
390.6226438209789
20
-1457.823553326777
11
365.30206235549804
21
-1465.1465466767554
0
LINE
8
drawinglayer
10
365.30206235549804
20
-1465.1465466767554
11
337.08915493428157
21
-1460.093542080675
0
LINE
8
drawinglayer
10
337.08915493428157
20
-1460.093542080675
11
310.6720440044371
21
-1461.5970523964895
0
LINE
8
drawinglayer
10
310.6720440044371
20
-1461.5970523964895
11
284.8778300971805
21
-1465.569384887362
0
LINE
8
drawinglayer
10
284.8778300971805
20
-1465.569384887362
11
259.69084970089375
21
-1472.7799946297573
0
LINE
8
drawinglayer
10
259.69084970089375
20
-1472.7799946297573
11
232.07052888718212
21
-1465.2356532728863
0
LINE
8
drawinglayer
10
232.07052888718212
20
-1465.2356532728863
11
206.3937087237771
21
-1468.567545943749
0
LINE
8
drawinglayer
10
206.3937087237771
20
-1468.567545943749
11
180.45803024717247
21
-1469.7127140428877
0
LINE
8
drawinglayer
10
180.45803024717247
20
-1469.7127140428877
11
154.7805219835785
21
-1472.638296566571
0
LINE
8
drawinglayer
10
154.7805219835785
20
-1472.638296566571
11
128.75082097397768
21
-1471.6286177560319
0
LINE
8
drawinglayer
10
128.75082097397768
20
-1471.6286177560319
11
102.59433375917213
21
-1467.1673269196363
0
LINE
8
drawinglayer
10
102.59433375917213
20
-1467.1673269196363
11
77.37871130519132
21
-1476.473767134638
0
LINE
8
drawinglayer
10
77.37871130519132
20
-1476.473767134638
11
51.59890587464684
21
-1477.5993377477332
0
LINE
8
drawinglayer
10
51.59890587464684
20
-1477.5993377477332
11
25.742299494992626
21
-1474.7753503556776
0
LINE
8
drawinglayer
10
25.742299494992626
20
-1474.7753503556776
11
-2.704479375067035e-13
21
-1472.2499999999995
0
LINE
8
drawinglayer
10
-2.704479375067035e-13
20
-1472.2499999999995
11
-25.78593051108636
21
-1477.2749695935677
0
LINE
8
drawinglayer
10
-25.78593051108636
20
-1477.2749695935677
11
-51.642530245525485
21
-1478.8485762815064
0
LINE
8
drawinglayer
10
-51.642530245525485
20
-1478.8485762815064
11
-77.33945933800966
21
-1475.7247949835719
0
LINE
8
drawinglayer
10
-77.33945933800966
20
-1475.7247949835719
11
-102.76872494353302
21
-1469.661237045286
0
LINE
8
drawinglayer
10
-102.76872494353302
20
-1469.661237045286
11
-129.09944394496875
21
-1475.6133965483975
0
LINE
8
drawinglayer
10
-129.09944394496875
20
-1475.6133965483975
11
-155.17250372083276
21
-1476.367753674202
0
LINE
8
drawinglayer
10
-155.17250372083276
20
-1476.367753674202
11
-180.8541056132398
21
-1472.9384890357226
0
LINE
8
drawinglayer
10
-180.8541056132398
20
-1472.9384890357226
11
-207.54188680669822
21
-1476.737257510867
0
LINE
8
drawinglayer
10
-207.54188680669822
20
-1476.737257510867
11
-234.10417693270583
21
-1478.075601700624
0
LINE
8
drawinglayer
10
-234.10417693270583
20
-1478.075601700624
11
-259.8210858341445
21
-1473.5186004445163
0
LINE
8
drawinglayer
10
-259.8210858341445
20
-1473.5186004445163
11
-285.4979593321549
21
-1468.7596732335671
0
LINE
8
drawinglayer
10
-285.4979593321549
20
-1468.7596732335671
11
-313.7387414439996
21
-1476.024729507313
0
LINE
8
drawinglayer
10
-313.7387414439996
20
-1476.024729507313
11
-341.3632249668154
21
-1478.6065733115936
0
LINE
8
drawinglayer
10
-341.3632249668154
20
-1478.6065733115936
11
-365.9673475683975
21
-1467.814859924014
0
LINE
8
drawinglayer
10
-365.9673475683975
20
-1467.814859924014
11
-395.0872723489976
21
-1474.4857738302624
0
LINE
8
drawinglayer
10
-395.0872723489976
20
-1474.4857738302624
11
-423.79243456863594
21
-1477.939857505166
0
LINE
8
drawinglayer
10
-423.79243456863594
20
-1477.939857505166
11
-451.05644746100285
21
-1475.3391622619733
0
LINE
8
drawinglayer
10
-451.05644746100285
20
-1475.3391622619733
11
-480.057900761481
21
-1477.4662980645207
0
LINE
8
drawinglayer
10
-480.057900761481
20
-1477.4662980645207
11
-510.4094741502073
21
-1482.336746895829
0
LINE
8
drawinglayer
10
-510.4094741502073
20
-1482.336746895829
11
-537.9121804154464
21
-1477.9015693410367
0
LINE
8
drawinglayer
10
-537.9121804154464
20
-1477.9015693410367
11
-568.8195279157787
21
-1481.8255319576838
0
LINE
8
drawinglayer
10
-568.8195279157787
20
-1481.8255319576838
11
-601.2435824325393
21
-1488.1300865796936
0
LINE
8
drawinglayer
10
-601.2435824325393
20
-1488.1300865796936
11
-627.5141923537741
21
-1478.3307946446198
0
LINE
8
drawinglayer
10
-627.5141923537741
20
-1478.3307946446198
11
-658.709993461258
21
-1479.4868686521916
0
LINE
8
drawinglayer
10
-658.709993461258
20
-1479.4868686521916
11
-691.6147853386545
21
-1483.1726934854787
0
LINE
8
drawinglayer
10
-691.6147853386545
20
-1483.1726934854787
11
-725.9426190827126
21
-1488.4029406714199
0
LINE
8
drawinglayer
10
-725.9426190827126
20
-1488.4029406714199
11
-756.6886654408898
21
-1485.085124190962
0
LINE
8
drawinglayer
10
-756.6886654408898
20
-1485.085124190962
11
-795.2848273592987
21
-1495.713222303022
0
LINE
8
drawinglayer
10
-795.2848273592987
20
-1495.713222303022
11
-830.1152722667917
21
-1497.5675935494303
0
LINE
8
drawinglayer
10
-830.1152722667917
20
-1497.5675935494303
11
-861.1250000000008
21
-1491.512251667749
0
LINE
8
drawinglayer
10
-861.1250000000008
20
-1491.512251667749
11
-894.8786551562198
21
-1489.32818496992
0
LINE
8
drawinglayer
10
-894.8786551562198
20
-1489.32818496992
11
-934.512622475257
21
-1495.532817571857
0
LINE
8
drawinglayer
10
-934.512622475257
20
-1495.532817571857
11
-979.1248251982648
21
-1507.7200135238863
0
LINE
8
drawinglayer
10
-979.1248251982648
20
-1507.7200135238863
11
-1017.591286090892
21
-1508.6411226570362
0
LINE
8
drawinglayer
10
-1017.591286090892
20
-1508.6411226570362
11
-1049.071302086064
21
-1498.2290890045658
0
LINE
8
drawinglayer
10
-1049.071302086064
20
-1498.2290890045658
11
-1088.8721798718063
21
-1498.7039820795897
0
LINE
8
drawinglayer
10
-1088.8721798718063
20
-1498.7039820795897
11
-1130.2086134795466
21
-1499.8374878688157
0
LINE
8
drawinglayer
10
-1130.2086134795466
20
-1499.8374878688157
11
-1182.685694100589
21
-1513.7686576785131
0
LINE
8
drawinglayer
10
-1182.685694100589
20
-1513.7686576785131
11
-1209.8684517933118
21
-1494.063110901027
0
LINE
8
drawinglayer
10
-1209.8684517933118
20
-1494.063110901027
11
-1244.1154185482972
21
-1482.6790196567817
0
LINE
8
drawinglayer
10
-1244.1154185482972
20
-1482.6790196567817
11
-1522.3849767724732
21
-1751.303580906942
0
LINE
8
drawinglayer
10
-1522.3849767724732
20
-1751.303580906942
11
-1618.2923714789
21
-1797.295760417078
0
LINE
8
drawinglayer
10
-1618.2923714789
20
-1797.295760417078
11
-1689.991936234872
21
-1812.2944726123048
0
LINE
8
drawinglayer
10
-1689.991936234872
20
-1812.2944726123048
11
-1729.5256778502896
21
-1790.9762678931563
0
LINE
8
drawinglayer
10
-1729.5256778502896
20
-1790.9762678931563
11
-1800.470641596247
21
-1800.4706415962464
0
LINE
8
drawinglayer
10
-1800.470641596247
20
-1800.4706415962464
11
-1870.1036459304082
21
-1805.9380986007784
0
LINE
8
drawinglayer
10
-1870.1036459304082
20
-1805.9380986007784
11
-1952.714383323186
21
-1820.9356213668711
0
LINE
8
drawinglayer
10
-1952.714383323186
20
-1820.9356213668711
11
-1997.573290883236
21
-1798.6230698926113
0
LINE
8
drawinglayer
10
-1997.573290883236
20
-1798.6230698926113
11
-2087.1493441060766
21
-1814.331244673249
0
LINE
8
drawinglayer
10
-2087.1493441060766
20
-1814.331244673249
11
-2117.9213741131944
21
-1777.1470438808594
0
LINE
8
drawinglayer
10
-2117.9213741131944
20
-1777.1470438808594
11
-2103.9284041543856
21
-1703.7276286696722
0
LINE
8
drawinglayer
10
-2103.9284041543856
20
-1703.7276286696722
11
-2079.9543841449427
21
-1625.0384641220733
0
LINE
8
drawinglayer
10
-2079.9543841449427
20
-1625.0384641220733
11
-2102.2083213219867
21
-1584.1275946919782
0
LINE
8
drawinglayer
10
-2102.2083213219867
20
-1584.1275946919782
11
-2110.3208298270506
21
-1533.2378306049159
0
LINE
8
drawinglayer
10
-2110.3208298270506
20
-1533.2378306049159
11
-2175.6678296315627
21
-1523.4190149483775
0
LINE
8
drawinglayer
10
-2175.6678296315627
20
-1523.4190149483775
11
-2222.4424726269294
21
-1499.0563759792049
0
LINE
8
drawinglayer
10
-2222.4424726269294
20
-1499.0563759792049
11
-2239.250416414283
21
-1454.1862234901228
0
LINE
8
drawinglayer
10
-2239.250416414283
20
-1454.1862234901228
11
-2268.740669242478
21
-1417.6665116398806
0
LINE
8
drawinglayer
10
-2268.740669242478
20
-1417.6665116398806
11
-2438.855262322685
21
-1465.4120826378316
0
LINE
8
drawinglayer
10
-2438.855262322685
20
-1465.4120826378316
11
-2618.8608210441425
21
-1512.0000000000005
0
LINE
8
drawinglayer
10
-2618.8608210441425
20
-1512.0000000000005
11
-2656.001395655559
21
-1472.2456142830645
0
LINE
8
drawinglayer
10
-2656.001395655559
20
-1472.2456142830645
11
-2674.448258769689
21
-1422.0293636784616
0
LINE
8
drawinglayer
10
-2674.448258769689
20
-1422.0293636784616
11
-2963.2649478194653
21
-1509.8589045087958
0
LINE
8
drawinglayer
10
-2963.2649478194653
20
-1509.8589045087958
11
-3142.8580813966123
21
-1532.874307534705
0
LINE
8
drawinglayer
10
-3142.8580813966123
20
-1532.874307534705
11
-3288.084651368966
21
-1533.259053595257
0
LINE
8
drawinglayer
10
-3288.084651368966
20
-1533.259053595257
11
-3365.0446932265213
21
-1498.2144247697086
0
LINE
8
drawinglayer
10
-3365.0446932265213
20
-1498.2144247697086
11
-3532.6675013371037
21
-1499.5283883597097
0
LINE
8
drawinglayer
10
-3532.6675013371037
20
-1499.5283883597097
11
-3774.1018800141082
21
-1524.8361384994698
0
LINE
8
drawinglayer
10
-3774.1018800141082
20
-1524.8361384994698
11
-4060.374669942954
21
-1558.6318045598975
0
LINE
8
drawinglayer
10
-4060.374669942954
20
-1558.6318045598975
11
-4125.955374715727
21
-1501.7249443071794
0
LINE
8
drawinglayer
10
-4125.955374715727
20
-1501.7249443071794
11
-4312.510223308485
21
-1484.9163524790927
0
LINE
8
drawinglayer
10
-4312.510223308485
20
-1484.9163524790927
11
-4921.241943569271
21
-1599.0084373931668
0
LINE
8
drawinglayer
10
-4921.241943569271
20
-1599.0084373931668
11
-5022.751654506855
21
-1535.6092861299946
0
LINE
8
drawinglayer
10
-5022.751654506855
20
-1535.6092861299946
11
-5298.474468012015
21
-1519.3131052632964
0
LINE
8
drawinglayer
10
-5298.474468012015
20
-1519.3131052632964
11
-5380.931296799829
21
-1441.8161955048656
0
LINE
8
drawinglayer
10
-5380.931296799829
20
-1441.8161955048656
11
-5570.952912413634
21
-1388.9945635854913
0
LINE
8
drawinglayer
10
-5570.952912413634
20
-1388.9945635854913
11
-5659.628521305038
21
-1306.6281991563394
0
LINE
8
drawinglayer
10
-5659.628521305038
20
-1306.6281991563394
11
-5613.100006810945
21
-1193.1012377577106
0
LINE
8
drawinglayer
10
-5613.100006810945
20
-1193.1012377577106
11
-5605.336624282024
21
-1089.5670658489146
0
LINE
8
drawinglayer
10
-5605.336624282024
20
-1089.5670658489146
11
-5565.887218086744
21
-981.4160881290738
0
LINE
8
drawinglayer
10
-5565.887218086744
20
-981.4160881290738
11
-5561.179201720923
21
-880.804255409019
0
LINE
8
drawinglayer
10
-5561.179201720923
20
-880.804255409019
11
-5673.245765820456
21
-797.3226954002154
0
LINE
8
drawinglayer
10
-5673.245765820456
20
-797.3226954002154
11
-5579.59819145169
21
-685.0885139520378
0
LINE
8
drawinglayer
10
-5579.59819145169
20
-685.0885139520378
11
-5682.200849186627
21
-597.2233748797381
0
LINE
8
drawinglayer
10
-5682.200849186627
20
-597.2233748797381
11
-5573.211238474269
21
-487.5928028017722
0
LINE
8
drawinglayer
10
-5573.211238474269
20
-487.5928028017722
11
-5680.877875217135
21
-397.2456788543549
0
LINE
8
drawinglayer
10
-5680.877875217135
20
-397.2456788543549
11
-5662.479119442121
21
-296.7579558865507
0
LINE
8
drawinglayer
10
-5662.479119442121
20
-296.7579558865507
11
-5630.068224012075
21
-196.60631467353878
0
LINE
8
drawinglayer
10
-5630.068224012075
20
-196.60631467353878
11
-5605.646102894306
21
-97.84691669062819
0
LINE
8
drawinglayer
10
-5605.646102894306
20
-97.84691669062819
11
-5615.499999999998
21
6.87700410061196e-13
0
LINE
8
drawinglayer
10
-5615.499999999998
20
6.87700410061196e-13
11
-5718.87885437077
21
99.82340171965197
0
LINE
8
drawinglayer
10
-5718.87885437077
20
99.82340171965197
11
-5618.075534087845
21
196.1875207131101
0
LINE
8
drawinglayer
10
-5618.075534087845
20
196.1875207131101
11
-5595.820597997253
21
293.264530807338
0
LINE
8
drawinglayer
10
-5595.820597997253
20
293.264530807338
11
-5724.521302416002
21
400.2975245806644
0
LINE
8
drawinglayer
10
-5724.521302416002
20
400.2975245806644
11
-5615.0514157941225
21
491.2533439971753
0
LINE
8
drawinglayer
10
-5615.0514157941225
20
491.2533439971753
11
-5569.819875010013
21
585.4116585304946
0
LINE
8
drawinglayer
10
-5569.819875010013
20
585.4116585304946
11
-5576.620552996766
21
684.7229059218213
0
LINE
8
drawinglayer
10
-5576.620552996766
20
684.7229059218213
11
-5590.805949097718
21
785.7365347452884
0
LINE
8
drawinglayer
10
-5590.805949097718
20
785.7365347452884
11
-5677.232581740852
21
899.1853050512478
0
LINE
8
drawinglayer
10
-5677.232581740852
20
899.1853050512478
11
-5657.47433911688
21
997.5653686520998
0
LINE
8
drawinglayer
10
-5657.47433911688
20
997.5653686520998
11
-5614.662082524777
21
1091.3797513049933
0
LINE
8
drawinglayer
10
-5614.662082524777
20
1091.3797513049933
11
-5628.5058315225015
21
1196.3758468880915
0
LINE
8
drawinglayer
10
-5628.5058315225015
20
1196.3758468880915
11
-5739.039681585035
21
1324.9617100853661
0
LINE
8
drawinglayer
10
-5739.039681585035
20
1324.9617100853661
11
-5692.725026061273
21
1419.355761483251
0
LINE
8
drawinglayer
10
-5692.725026061273
20
1419.355761483251
11
-5657.669046031642
21
1515.9678519267404
0
LINE
8
drawinglayer
10
-5657.669046031642
20
1515.9678519267404
11
-5636.598269558315
21
1616.2685451719287
0
LINE
8
drawinglayer
10
-5636.598269558315
20
1616.2685451719287
11
-5693.599440814923
21
1740.7080369929956
0
LINE
8
drawinglayer
10
-5693.599440814923
20
1740.7080369929956
11
-5668.772365377261
21
1841.895794971874
0
LINE
8
drawinglayer
10
-5668.772365377261
20
1841.895794971874
11
-5606.925153303951
21
1930.6191559309395
0
LINE
8
drawinglayer
10
-5606.925153303951
20
1930.6191559309395
11
-5623.355565938074
21
2046.7340426966346
0
LINE
8
drawinglayer
10
-5623.355565938074
20
2046.7340426966346
11
-5618.987191980031
21
2156.9270963257777
0
LINE
8
drawinglayer
10
-5618.987191980031
20
2156.9270963257777
11
-5615.952607111031
21
2268.9921363201806
0
LINE
8
drawinglayer
10
-5615.952607111031
20
2268.9921363201806
11
-5581.941431335596
21
2369.393563158955
0
LINE
8
drawinglayer
10
-5581.941431335596
20
2369.393563158955
11
-5466.884404897736
21
2434.013756326357
0
LINE
8
drawinglayer
10
-5466.884404897736
20
2434.013756326357
11
-5296.46270744218
21
2469.7811216126465
0
LINE
8
drawinglayer
10
-5296.46270744218
20
2469.7811216126465
11
-4975.049744777464
21
2426.4938902642425
0
LINE
8
drawinglayer
10
-4975.049744777464
20
2426.4938902642425
11
-4906.104673812199
21
2499.785189190879
0
LINE
8
drawinglayer
10
-4906.104673812199
20
2499.785189190879
11
-4693.970140536269
21
2495.8281956604906
0
LINE
8
drawinglayer
10
-4693.970140536269
20
2495.8281956604906
11
-4442.193492560989
21
2462.3480612311455
0
LINE
8
drawinglayer
10
-4442.193492560989
20
2462.3480612311455
11
-4264.525594585522
21
2462.1249999999995
0
LINE
8
drawinglayer
10
-4264.525594585522
20
2462.1249999999995
11
-4176.119089020691
21
2509.2655009617847
0
LINE
8
drawinglayer
10
-4176.119089020691
20
2509.2655009617847
11
-4029.712540911297
21
2518.0438638201313
0
LINE
8
drawinglayer
10
-4029.712540911297
20
2518.0438638201313
11
-3825.17646039908
21
2484.0986387035405
0
LINE
8
drawinglayer
10
-3825.17646039908
20
2484.0986387035405
11
-3622.065154492977
21
2443.113795263693
0
LINE
8
drawinglayer
10
-3622.065154492977
20
2443.113795263693
11
-3567.2023648674876
21
2497.7819861997173
0
LINE
8
drawinglayer
10
-3567.2023648674876
20
2497.7819861997173
11
-3421.7373777088405
21
2486.037724571016
0
LINE
8
drawinglayer
10
-3421.7373777088405
20
2486.037724571016
11
-2065.6707467373226
21
1556.594557382774
0
LINE
8
drawinglayer
10
-2065.6707467373226
20
1556.594557382774
11
-2019.6715614940285
21
1577.9403612596627
0
LINE
8
drawinglayer
10
-2019.6715614940285
20
1577.9403612596627
11
-1992.4079586853088
21
1613.4201525540204
0
LINE
8
drawinglayer
10
-1992.4079586853088
20
1613.4201525540204
11
-1917.4092411268016
21
1608.8973870454083
0
LINE
8
drawinglayer
10
-1917.4092411268016
20
1608.8973870454083
11
-1763.5676115855629
21
1533.0459359935683
0
LINE
8
drawinglayer
10
-1763.5676115855629
20
1533.0459359935683
11
-1710.5336020425918
21
1540.171373186501
0
LINE
8
drawinglayer
10
-1710.5336020425918
20
1540.171373186501
11
-1680.6508063208544
21
1567.2322314236224
0
LINE
8
drawinglayer
10
-1680.6508063208544
20
1567.2322314236224
11
-1654.6613757289813
21
1597.8879166483084
0
LINE
8
drawinglayer
10
-1654.6613757289813
20
1597.8879166483084
11
-1777.4896712076843
21
1777.4896712076845
0
LINE
8
drawinglayer
10
-1777.4896712076843
20
1777.4896712076845
11
-2016.419584849854
21
2088.063605433019
0
LINE
8
drawinglayer
10
-2016.419584849854
20
2088.063605433019
11
-1973.7032540208697
21
2116.537612485879
0
LINE
8
drawinglayer
10
-1973.7032540208697
20
2116.537612485879
11
-2185.715125671209
21
2427.4825724219086
0
LINE
8
drawinglayer
10
-2185.715125671209
20
2427.4825724219086
11
-2148.265290429417
21
2471.2965204394686
0
LINE
8
drawinglayer
10
-2148.265290429417
20
2471.2965204394686
11
-2107.3791783573192
21
2511.4767067655694
0
LINE
8
drawinglayer
10
-2107.3791783573192
20
2511.4767067655694
11
-2002.654814418344
21
2473.072735846445
0
LINE
8
drawinglayer
10
-2002.654814418344
20
2473.072735846445
11
-1659.9772528468059
21
2124.6739944121236
0
LINE
8
drawinglayer
10
-1659.9772528468059
20
2124.6739944121236
11
-1587.7384848308914
21
2107.0001343822696
0
LINE
8
drawinglayer
10
-1587.7384848308914
20
2107.0001343822696
11
-2054.0155641360475
21
2827.1098868432546
0
LINE
8
drawinglayer
10
-2054.0155641360475
20
2827.1098868432546
11
-1300.1569147961675
21
2080.6860039197904
0
LINE
8
drawinglayer
10
-1300.1569147961675
20
2080.6860039197904
11
-1264.032195348001
21
2103.70284774816
0
LINE
8
drawinglayer
10
-1264.032195348001
20
2103.70284774816
11
-1237.2499999999993
21
2142.979861664593
0
LINE
8
drawinglayer
10
-1237.2499999999993
20
2142.979861664593
11
-1269.6979301465778
21
2491.922496523819
0
LINE
8
drawinglayer
10
-1269.6979301465778
20
2491.922496523819
11
-1168.7508028439045
21
2506.394185049857
0
LINE
8
drawinglayer
10
-1168.7508028439045
20
2506.394185049857
11
-1092.1895708192915
21
2453.097940134793
0
LINE
8
drawinglayer
10
-1092.1895708192915
20
2453.097940134793
11
-1037.7818772675105
21
2444.860890769681
0
LINE
8
drawinglayer
10
-1037.7818772675105
20
2444.860890769681
11
-949.9438422572049
21
2474.688315537458
0
LINE
8
drawinglayer
10
-949.9438422572049
20
2474.688315537458
11
-893.4421194024784
21
2454.7120486479903
0
LINE
8
drawinglayer
10
-893.4421194024784
20
2454.7120486479903
11
-860.3952401916501
21
2498.7692156650946
0
LINE
8
drawinglayer
10
-860.3952401916501
20
2498.7692156650946
11
-819.1267978393918
21
2521.013060569379
0
LINE
8
drawinglayer
10
-819.1267978393918
20
2521.013060569379
11
-768.1335612328103
21
2512.4516701038865
0
LINE
8
drawinglayer
10
-768.1335612328103
20
2512.4516701038865
11
-718.8622239707332
21
2506.970503007135
0
LINE
8
drawinglayer
10
-718.8622239707332
20
2506.970503007135
11
-669.4354601576703
21
2498.367149696676
0
LINE
8
drawinglayer
10
-669.4354601576703
20
2498.367149696676
11
-625.4285805990406
21
2508.4570263550204
0
LINE
8
drawinglayer
10
-625.4285805990406
20
2508.4570263550204
11
-580.4299579707572
21
2514.118359662103
0
LINE
8
drawinglayer
10
-580.4299579707572
20
2514.118359662103
11
-567.0271587827335
21
2667.653044101271
0
LINE
8
drawinglayer
10
-567.0271587827335
20
2667.653044101271
11
-732.0387107621142
21
3766.012689296963
0
LINE
8
drawinglayer
10
-732.0387107621142
20
3766.012689296963
11
-668.8493683285988
21
3793.233262664772
0
LINE
8
drawinglayer
10
-668.8493683285988
20
3793.233262664772
11
-598.6355890927041
21
3779.6363573724425
0
LINE
8
drawinglayer
10
-598.6355890927041
20
3779.6363573724425
11
-538.7738670916525
21
3833.5752611158064
0
LINE
8
drawinglayer
10
-538.7738670916525
20
3833.5752611158064
11
-472.1523036873925
21
3845.3719279963943
0
LINE
8
drawinglayer
10
-472.1523036873925
20
3845.3719279963943
11
-403.63666090804344
21
3840.3462989645886
0
LINE
8
drawinglayer
10
-403.63666090804344
20
3840.3462989645886
11
-335.81107680672716
21
3838.3381717474954
0
LINE
8
drawinglayer
10
-335.81107680672716
20
3838.3381717474954
11
-268.57986303331865
21
3840.8709845128897
0
LINE
8
drawinglayer
10
-268.57986303331865
20
3840.8709845128897
11
-201.80744727279148
21
3850.715486013637
0
LINE
8
drawinglayer
10
-201.80744727279148
20
3850.715486013637
11
-134.57245928484284
21
3853.6510289856337
0
LINE
8
drawinglayer
10
-134.57245928484284
20
3853.6510289856337
11
-67.31829473021168
21
3856.6625221419895
0
LINE
8
drawinglayer
10
-67.31829473021168
20
3856.6625221419895
11
2.354230390510893e-13
21
3844.75
0
LINE
8
drawinglayer
10
2.354230390510893e-13
20
3844.75
11
67.05214553204358
21
3841.4148447908547
0
LINE
8
drawinglayer
10
67.05214553204358
20
3841.4148447908547
11
134.17983994694103
21
3842.4078821816684
0
LINE
8
drawinglayer
10
134.17983994694103
20
3842.4078821816684
11
201.50651552439507
21
3844.9733661887994
0
LINE
8
drawinglayer
10
201.50651552439507
20
3844.9733661887994
11
268.68449774393434
21
3842.367330588278
0
LINE
8
drawinglayer
10
268.68449774393434
20
3842.367330588278
11
338.40396015347056
21
3867.9749640157256
0
LINE
8
drawinglayer
10
338.40396015347056
20
3867.9749640157256
11
405.41364478359407
21
3857.253171185849
0
LINE
8
drawinglayer
10
405.41364478359407
20
3857.253171185849
11
472.3046403666492
21
3846.612610685944
0
LINE
8
drawinglayer
10
472.3046403666492
20
3846.612610685944
11
539.191386394534
21
3836.546065322031
0
LINE
8
drawinglayer
10
539.191386394534
20
3836.546065322031
11
613.4577546552656
21
3873.219827643833
0
LINE
8
drawinglayer
10
613.4577546552656
20
3873.219827643833
11
655.9994031812462
21
3720.3574889418674
0
LINE
8
drawinglayer
10
655.9994031812462
20
3720.3574889418674
11
686.8646811067175
21
3533.612453615728
0
LINE
8
drawinglayer
10
686.8646811067175
20
3533.612453615728
11
756.6426208085301
21
3559.7236559705016
0
LINE
8
drawinglayer
10
756.6426208085301
20
3559.7236559705016
11
818.653124520911
21
3545.9762582696667
0
LINE
8
drawinglayer
10
818.653124520911
20
3545.9762582696667
11
652.7657548018035
21
2618.100443424208
0
LINE
8
drawinglayer
10
652.7657548018035
20
2618.100443424208
11
699.7819931959405
21
2611.6219528290685
0
LINE
8
drawinglayer
10
699.7819931959405
20
2611.6219528290685
11
749.0445144326955
21
2612.2286587123826
0
LINE
8
drawinglayer
10
749.0445144326955
20
2612.2286587123826
11
792.1080410200743
21
2590.8686600928527
0
LINE
8
drawinglayer
10
792.1080410200743
20
2590.8686600928527
11
848.8696835479807
21
2612.552250262787
0
LINE
8
drawinglayer
10
848.8696835479807
20
2612.552250262787
11
897.3472257225386
21
2606.085573995618
0
LINE
8
drawinglayer
10
897.3472257225386
20
2606.085573995618
11
945.6001912596429
21
2598.01517331784
0
LINE
8
drawinglayer
10
945.6001912596429
20
2598.01517331784
11
1002.2655628908187
21
2610.9910578060503
0
LINE
8
drawinglayer
10
1002.2655628908187
20
2610.9910578060503
11
1156.785160468337
21
2863.14374290224
0
LINE
8
drawinglayer
10
1156.785160468337
20
2863.14374290224
11
1217.9089275010658
21
2869.213628211256
0
LINE
8
drawinglayer
10
1217.9089275010658
20
2869.213628211256
11
1281.7288464926155
21
2878.810123396245
0
LINE
8
drawinglayer
10
1281.7288464926155
20
2878.810123396245
11
1326.598723604056
21
2844.900143508045
0
LINE
8
drawinglayer
10
1326.598723604056
20
2844.900143508045
11
1390.403684828257
21
2850.750016349384
0
LINE
8
drawinglayer
10
1390.403684828257
20
2850.750016349384
11
1457.4230017888806
21
2860.3536942757087
0
LINE
8
drawinglayer
10
1457.4230017888806
20
2860.3536942757087
11
1526.9562579611095
21
2871.787045773659
0
LINE
8
drawinglayer
10
1526.9562579611095
20
2871.787045773659
11
1579.752147572689
21
2849.94831571372
0
LINE
8
drawinglayer
10
1579.752147572689
20
2849.94831571372
11
2111.3750000000005
21
3657.008773830738
0
LINE
8
drawinglayer
10
2111.3750000000005
20
3657.008773830738
11
2171.4005238207887
21
3613.8173397601045
0
LINE
8
drawinglayer
10
2171.4005238207887
20
3613.8173397601045
11
2238.6439317531745
21
3582.579182212822
0
LINE
8
drawinglayer
10
2238.6439317531745
20
3582.579182212822
11
2303.550798596058
21
3547.1571671251713
0
LINE
8
drawinglayer
10
2303.550798596058
20
3547.1571671251713
11
2480.431299000099
21
3542.423015527745
0
LINE
8
drawinglayer
10
2480.431299000099
20
3542.423015527745
11
2801.6784050520723
21
3856.1795036881854
0
LINE
8
drawinglayer
10
2801.6784050520723
20
3856.1795036881854
11
1916.0686633513435
21
1607.772508728456
0
LINE
8
drawinglayer
10
1916.0686633513435
20
1607.772508728456
11
2032.67373892854
21
1588.098775602536
0
LINE
8
drawinglayer
10
2032.67373892854
20
1588.098775602536
11
1815.298514337497
21
1367.925547624606
0
LINE
8
drawinglayer
10
1815.298514337497
20
1367.925547624606
11
1822.7152883267565
21
1324.280173414942
0
LINE
8
drawinglayer
10
1822.7152883267565
20
1324.280173414942
11
1830.92947898781
21
1234.9775273151445
0
LINE
8
drawinglayer
10
1830.92947898781
20
1234.9775273151445
11
1821.382805935475
21
1182.8198242938852
0
LINE
8
drawinglayer
10
1821.382805935475
20
1182.8198242938852
11
1818.0031061353382
21
1136.014422699933
0
LINE
8
drawinglayer
10
1818.0031061353382
20
1136.014422699933
11
1818.4804284395314
21
1092.6532759216798
0
LINE
8
drawinglayer
10
1818.4804284395314
20
1092.6532759216798
11
1834.2418052154412
21
1058.9999999999998
0
LINE
8
drawinglayer
10
1834.2418052154412
20
1058.9999999999998
11
1826.4246034338432
21
1012.4036894794134
0
LINE
8
drawinglayer
10
1826.4246034338432
20
1012.4036894794134
11
1822.6245685590404
21
969.1066734807753
0
LINE
8
drawinglayer
10
1822.6245685590404
20
969.1066734807753
11
1836.8099496143204
21
935.9014152130757
0
LINE
8
drawinglayer
10
1836.8099496143204
20
935.9014152130757
11
1830.6187737998284
21
892.8524332226534
0
LINE
8
drawinglayer
10
1830.6187737998284
20
892.8524332226534
11
1812.3889971265403
21
845.1308689159636
0
LINE
8
drawinglayer
10
1812.3889971265403
20
845.1308689159636
11
1798.0858470050491
21
800.5593977339437
0
LINE
8
drawinglayer
10
1798.0858470050491
20
800.5593977339437
11
1850.9051340794952
21
785.6626166098074
0
LINE
8
drawinglayer
10
1850.9051340794952
20
785.6626166098074
11
1925.2972740079344
21
777.8705912281415
0
LINE
8
drawinglayer
10
1925.2972740079344
20
777.8705912281415
11
2050.142616587855
21
786.9760172014794
0
LINE
8
drawinglayer
10
2050.142616587855
20
786.9760172014794
11
2108.9051641987753
21
767.5787066586322
0
LINE
8
drawinglayer
10
2108.9051641987753
20
767.5787066586322
11
2112.9976368205726
21
727.5634331731306
0
LINE
8
drawinglayer
10
2112.9976368205726
20
727.5634331731306
11
2108.492296626355
21
685.0906765292582
0
LINE
8
drawinglayer
10
2108.492296626355
20
685.0906765292582
11
2115.346120190235
21
646.7262108466938
0
LINE
8
drawinglayer
10
2115.346120190235
20
646.7262108466938
11
2141.210427702605
21
613.9822100823656
0
LINE
8
drawinglayer
10
2141.210427702605
20
613.9822100823656
11
2117.5508926822104
21
567.3960516260012
0
LINE
8
drawinglayer
10
2117.5508926822104
20
567.3960516260012
11
2147.507016180349
21
535.4336354359646
0
LINE
8
drawinglayer
10
2147.507016180349
20
535.4336354359646
11
2148.5012050118044
21
456.6780288812083
0
LINE
8
drawinglayer
10
2148.5012050118044
20
456.6780288812083
11
3313.18939099211
21
465.6384025371391
0
LINE
8
drawinglayer
10
3313.18939099211
20
465.6384025371391
11
3321.8038330055942
21
407.8662250411773
0
LINE
8
drawinglayer
10
3321.8038330055942
20
407.8662250411773
11
3315.735999157825
21
348.4978965343568
0
LINE
8
drawinglayer
10
3315.735999157825
20
348.4978965343568
11
3311.1021277824375
21
289.6838999575287
0
LINE
8
drawinglayer
10
3311.1021277824375
20
289.6838999575287
11
3340.5926133075877
21
233.5969914506397
0
LINE
8
drawinglayer
10
3340.5926133075877
20
233.5969914506397
11
4434.414449077685
21
232.39781369679207
0
LINE
8
drawinglayer
10
4434.414449077685
20
232.39781369679207
11
5329.251585079326
21
186.10156616608634
0
LINE
8
drawinglayer
10
5329.251585079326
20
186.10156616608634
11
5389.179076892949
21
94.06847069695813
0
LINE
8
drawinglayer
10
5389.179076892949
20
94.06847069695813
11
5200.249999999999
21
-1.2736939034532044e-12
0
ENDSEC
0
EOF
